<svg id="Layer_1" data-name="Layer 1" xmlns="http://www.w3.org/2000/svg" viewBox="0 0 18 18"><defs><style>.cls-1{fill:#f6f6f6;}</style></defs><path class="cls-1" d="M10.9,11c-.08-.24-.14-.47-.22-.7s-.14-.47-.2-.69-.12-.41-.17-.6h0A9,9,0,0,1,10,10c-.11.37-.22.76-.34,1.14s-.22.76-.33,1.08h1.9c0-.16-.1-.36-.17-.56S11,11.25,10.9,11Zm6.91-8H6.19A3.22,3.22,0,0,0,3,6.27V17.73A3.22,3.22,0,0,0,6.19,21H17.81A3.22,3.22,0,0,0,21,17.73V6.27A3.22,3.22,0,0,0,17.81,3ZM14,15.72H12.46a.12.12,0,0,1-.12-.09l-.62-1.83H8.93l-.57,1.81a.13.13,0,0,1-.14.11H6.81c-.08,0-.1-.05-.08-.14L9.14,8.45c0-.08,0-.17.08-.26a2.74,2.74,0,0,0,0-.5.09.09,0,0,1,.06-.08h1.95q.09,0,.09.06l2.74,7.92C14.12,15.68,14.1,15.72,14,15.72Zm2.56-.12c0,.08,0,.12-.1.12H15c-.08,0-.11,0-.11-.12V9.68c0-.08,0-.11.09-.11h1.49c.07,0,.1,0,.1.11Zm-.16-6.95a.85.85,0,0,1-.68.27.9.9,0,0,1-.67-.27,1,1,0,0,1-.26-.7.91.91,0,0,1,.27-.69A.94.94,0,0,1,15.75,7a.87.87,0,0,1,.68.27,1,1,0,0,1,.25.69A1,1,0,0,1,16.42,8.65Z" transform="translate(-3 -3)"/></svg>