<svg id="Layer_1" data-name="Layer 1" xmlns="http://www.w3.org/2000/svg" viewBox="0 0 10 10"><defs><style>.cls-1{fill:#f6f6f6;}</style></defs><path class="cls-1" d="M11.39,11.46l-.12-.4c0-.13-.08-.25-.12-.38l-.09-.33h0a3.7,3.7,0,0,1-.14.55c-.06.21-.12.42-.19.63s-.12.42-.18.6H11.6l-.1-.31A3.07,3.07,0,0,1,11.39,11.46ZM15.23,7H8.77A1.79,1.79,0,0,0,7,8.82v6.36A1.79,1.79,0,0,0,8.77,17h6.46A1.79,1.79,0,0,0,17,15.18V8.82A1.79,1.79,0,0,0,15.23,7Zm-2.11,7.06h-.87s-.05,0-.06,0l-.34-1H10.3L10,14s0,.07-.08.06H9.12s-.06,0,0-.07l1.34-4s0-.09,0-.15a1.24,1.24,0,0,0,0-.27s0,0,0,0h1.08s.05,0,.06,0L13.17,14S13.17,14.06,13.12,14.06ZM14.54,14c0,.05,0,.07,0,.07h-.82s-.06,0-.06-.07V10.71s0-.06.05-.06h.83s0,0,0,.06Zm-.09-3.86a.46.46,0,0,1-.37.15.54.54,0,0,1-.38-.15.62.62,0,0,1-.14-.39.52.52,0,0,1,.15-.38.53.53,0,0,1,.37-.15.48.48,0,0,1,.38.15.58.58,0,0,1,0,.77Z" transform="translate(-7 -7)"/></svg>