<svg id="Layer_1" data-name="Layer 1" xmlns="http://www.w3.org/2000/svg" viewBox="0 0 10 10"><defs><style>.cls-1{fill:#f6f6f6;}</style></defs><path class="cls-1" d="M11.1,10.47a1.33,1.33,0,0,0-.49-.09h-.45v1.44h.38a1.56,1.56,0,0,0,.48-.08.71.71,0,0,0,.34-.23.64.64,0,0,0,.13-.44.73.73,0,0,0-.09-.38A.6.6,0,0,0,11.1,10.47ZM15.23,7H8.77A1.79,1.79,0,0,0,7,8.82v6.36A1.79,1.79,0,0,0,8.77,17h6.46A1.79,1.79,0,0,0,17,15.18V8.82A1.79,1.79,0,0,0,15.23,7Zm-3.08,5a1.43,1.43,0,0,1-.67.52,2.58,2.58,0,0,1-.94.15h-.39V14s0,.05,0,.06H9.3s-.05,0-.05-.06V9.62s0,0,0,0h1.29a2.38,2.38,0,0,1,.86.14A1.43,1.43,0,0,1,12,10a1.26,1.26,0,0,1,.3.48A1.72,1.72,0,0,1,12.15,12Zm2.95,1.66a1.06,1.06,0,0,1-.46.38,1.91,1.91,0,0,1-.76.14,2.6,2.6,0,0,1-.56-.06,1.53,1.53,0,0,1-.43-.13.07.07,0,0,1,0-.08v-.75a.06.06,0,0,1,0,0s0,0,0,0a1.83,1.83,0,0,0,.52.21,1.93,1.93,0,0,0,.49.06.71.71,0,0,0,.34-.06.2.2,0,0,0,.12-.18.26.26,0,0,0-.1-.17,2.21,2.21,0,0,0-.41-.2,2.55,2.55,0,0,1-.59-.31A1.11,1.11,0,0,1,13,12.1a1,1,0,0,1-.1-.44.92.92,0,0,1,.15-.51,1,1,0,0,1,.43-.4,1.65,1.65,0,0,1,.74-.15,4.55,4.55,0,0,1,.52,0,1.61,1.61,0,0,1,.36.1l0,0s0,0,0,.05v.7l0,0H15a1.38,1.38,0,0,0-.4-.15,2.42,2.42,0,0,0-.47-.05.72.72,0,0,0-.25,0,.22.22,0,0,0-.13.08.27.27,0,0,0,0,.12.21.21,0,0,0,0,.11.36.36,0,0,0,.14.11l.3.15a2.53,2.53,0,0,1,.64.31,1,1,0,0,1,.33.35,1,1,0,0,1,.1.44A1.06,1.06,0,0,1,15.1,13.64Z" transform="translate(-7 -7)"/></svg>