<?xml version="1.0" encoding="utf-8"?>
<!-- Generator: Adobe Illustrator 24.2.0, SVG Export Plug-In . SVG Version: 6.00 Build 0)  -->
<svg version="1.1" id="Layer_1" xmlns="http://www.w3.org/2000/svg" xmlns:xlink="http://www.w3.org/1999/xlink" x="0px" y="0px"
	 viewBox="0 0 512 512" style="enable-background:new 0 0 512 512;" xml:space="preserve">
<style type="text/css">
	.st0{fill:#470137;}
	.st1{fill:#FF61F6;}
</style>
<g transform="matrix(1.000000125 0 0 1.000000125 159.9999625 83.00005)">
	<path class="st0" d="M-49.31-46.38h290.62c44.06,0,79.69,35.62,79.69,79.69v279.38c0,44.06-35.62,79.69-79.69,79.69H-49.31
		c-44.06,0-79.69-35.62-79.69-79.69V33.31C-129-10.75-93.37-46.38-49.31-46.38z"/>
	<g>
		<path class="st1" d="M107.63,68.94l-56.25,92.81l60,98.44c0.38,0.75,0.56,1.5,0.38,2.25c-0.19,0.75-0.94,0.19-2.06,0.38H66.75
			c-3,0-5.06-0.19-6.38-2.06c-3.94-7.88-8.06-15.56-12-23.44c-3.94-7.69-8.25-15.56-12.75-23.63c-4.5-8.06-9-16.12-13.5-24.38h-0.37
			c-3.94,8.06-8.25,16.13-12.56,24.19c-4.31,8.06-8.62,16.12-12.75,24c-4.31,7.88-8.62,15.94-12.94,23.62
			c-0.75,1.88-2.25,2.06-4.31,2.06h-41.25c-0.75,0-1.31,0.38-1.31-0.56c-0.19-0.75,0-1.5,0.38-2.06l58.31-95.62L-61.5,68.75
			c-0.56-0.75-0.75-1.5-0.38-1.88c0.38-0.56,1.12-0.75,1.88-0.75h42.56c0.94,0,1.87,0.19,2.63,0.38c0.75,0.38,1.31,0.94,1.88,1.69
			c3.56,8.06,7.69,16.12,12,24.19c4.5,8.06,8.81,15.94,13.5,23.81c4.5,7.87,8.62,15.75,12.56,23.81h0.37
			c3.94-8.25,8.06-16.31,12.19-24.19s8.44-15.75,12.75-23.62S58.88,76.25,63,68.56c0.19-0.75,0.56-1.5,1.12-1.88
			c0.75-0.38,1.5-0.56,2.44-0.38h39.56c0.94-0.19,1.88,0.38,2.06,1.31C108.38,67.81,108,68.56,107.63,68.94L107.63,68.94z"/>
		<path class="st1" d="M194.25,266.75c-13.87,0.19-27.75-2.62-40.31-8.44c-11.81-5.44-21.56-14.44-28.31-25.5
			c-6.94-11.44-10.31-25.69-10.31-42.75c-0.19-13.88,3.38-27.56,10.31-39.56c7.13-12.19,17.44-22.31,29.81-29.06
			c13.12-7.31,28.87-10.88,47.44-10.88c0.94,0,2.25,0,3.94,0.19s3.56,0.19,5.81,0.37V51.87c0-1.31,0.56-2.06,1.88-2.06h38.06
			c0.94-0.19,1.69,0.56,1.88,1.31V230c0,3.38,0.19,7.12,0.38,11.25c0.37,3.94,0.56,7.69,0.75,10.88c0,1.31-0.56,2.44-1.88,3
			c-9.75,4.12-20.06,7.13-30.56,9C213.56,265.81,204,266.75,194.25,266.75z M212.63,229.25v-82.5c-1.69-0.38-3.38-0.75-5.06-0.94
			c-2.06-0.19-4.12-0.38-6.19-0.38c-7.31,0-14.63,1.5-21.19,4.88c-6.37,3.19-11.81,7.87-15.94,13.88c-4.12,6-6.19,14.06-6.19,23.81
			c-0.19,6.56,0.94,13.12,3.19,19.31c1.88,5.06,4.69,9.56,8.44,13.31c3.56,3.38,7.87,6,12.75,7.5c5.06,1.69,10.31,2.44,15.56,2.44
			c2.81,0,5.44-0.19,7.88-0.38C208.31,230.37,210.38,230,212.63,229.25L212.63,229.25z"/>
	</g>
</g>
</svg>
