<svg xmlns="http://www.w3.org/2000/svg" xmlns:xlink="http://www.w3.org/1999/xlink" viewBox="0 0 3710 3710"><defs><style>.cls-1{isolation:isolate;}.cls-2,.cls-21,.cls-25,.cls-27{fill:#fff;}.cls-22,.cls-3,.cls-92{fill:#f4f7fa;}.cls-4{fill:#97a6b7;}.cls-20,.cls-5{fill:#d8dee8;}.cls-6{fill:url(#linear-gradient);}.cls-7{fill:url(#linear-gradient-2);}.cls-8{fill:url(#linear-gradient-3);}.cls-9{fill:url(#linear-gradient-4);}.cls-10{fill:url(#linear-gradient-5);}.cls-11{fill:url(#linear-gradient-6);}.cls-12{fill:url(#linear-gradient-7);}.cls-13{fill:url(#linear-gradient-8);}.cls-105,.cls-110,.cls-14,.cls-20,.cls-39,.cls-46,.cls-58,.cls-67,.cls-69,.cls-75,.cls-87,.cls-96{mix-blend-mode:multiply;}.cls-14,.cls-20,.cls-39,.cls-46,.cls-58,.cls-67,.cls-69,.cls-75,.cls-87,.cls-96{opacity:0.3;}.cls-14{fill:url(#linear-gradient-9);}.cls-15{fill:url(#linear-gradient-10);}.cls-16{fill:url(#linear-gradient-11);}.cls-17{fill:url(#linear-gradient-12);}.cls-18{fill:url(#linear-gradient-13);}.cls-19{fill:url(#linear-gradient-14);}.cls-118,.cls-21,.cls-22,.cls-23,.cls-25,.cls-27,.cls-29{mix-blend-mode:soft-light;}.cls-21{opacity:0.6;}.cls-24{opacity:0.7;}.cls-25{opacity:0.35;}.cls-26{fill:url(#linear-gradient-15);}.cls-27{opacity:0.74;}.cls-28{fill:url(#linear-gradient-16);}.cls-29{opacity:0.5;}.cls-118,.cls-30{opacity:0.8;}.cls-31{fill:url(#linear-gradient-17);}.cls-32{fill:url(#linear-gradient-18);}.cls-33{fill:url(#linear-gradient-19);}.cls-34{fill:url(#linear-gradient-20);}.cls-35{fill:url(#linear-gradient-21);}.cls-36{fill:url(#linear-gradient-22);}.cls-37{fill:url(#linear-gradient-23);}.cls-38{fill:url(#linear-gradient-24);}.cls-40{fill:url(#linear-gradient-25);}.cls-41{fill:url(#linear-gradient-26);}.cls-42{fill:url(#linear-gradient-27);}.cls-43{fill:url(#linear-gradient-28);}.cls-44{fill:url(#linear-gradient-29);}.cls-45{fill:url(#linear-gradient-30);}.cls-46{fill:url(#linear-gradient-31);}.cls-47{fill:url(#linear-gradient-32);}.cls-48{fill:url(#linear-gradient-33);}.cls-49{fill:url(#linear-gradient-34);}.cls-50{fill:url(#linear-gradient-35);}.cls-51{fill:url(#linear-gradient-36);}.cls-52{fill:#e7ebef;}.cls-53{fill:url(#linear-gradient-37);}.cls-54{fill:url(#linear-gradient-38);}.cls-55{fill:url(#linear-gradient-39);}.cls-56{fill:url(#linear-gradient-40);}.cls-57{fill:url(#linear-gradient-41);}.cls-58{fill:url(#linear-gradient-42);}.cls-59{fill:url(#linear-gradient-43);}.cls-60{fill:url(#linear-gradient-44);}.cls-61{fill:url(#linear-gradient-45);}.cls-62{fill:url(#linear-gradient-46);}.cls-63{fill:url(#linear-gradient-47);}.cls-64{fill:url(#linear-gradient-48);}.cls-65{fill:url(#linear-gradient-49);}.cls-66{fill:url(#linear-gradient-50);}.cls-67{fill:url(#linear-gradient-51);}.cls-68{fill:url(#linear-gradient-52);}.cls-69{fill:url(#linear-gradient-53);}.cls-70{fill:url(#linear-gradient-54);}.cls-71{fill:url(#linear-gradient-55);}.cls-72{fill:url(#linear-gradient-56);}.cls-73{fill:#b7c0ce;}.cls-74,.cls-75{fill:#ebeff2;}.cls-76{fill:url(#linear-gradient-57);}.cls-77{fill:url(#linear-gradient-58);}.cls-78{fill:url(#linear-gradient-59);}.cls-79{fill:url(#linear-gradient-60);}.cls-80{fill:url(#linear-gradient-61);}.cls-81{fill:url(#linear-gradient-62);}.cls-82{fill:url(#linear-gradient-63);}.cls-83{fill:url(#linear-gradient-64);}.cls-84{fill:url(#linear-gradient-65);}.cls-85{fill:url(#linear-gradient-66);}.cls-86{fill:url(#linear-gradient-67);}.cls-87{fill:url(#linear-gradient-68);}.cls-88{fill:url(#linear-gradient-69);}.cls-89{fill:url(#linear-gradient-70);}.cls-90{fill:url(#linear-gradient-71);}.cls-91{fill:url(#linear-gradient-72);}.cls-92{opacity:0.81;}.cls-93{fill:url(#linear-gradient-73);}.cls-94{fill:url(#linear-gradient-74);}.cls-95{fill:url(#linear-gradient-75);}.cls-96{fill:url(#linear-gradient-76);}.cls-97{fill:url(#linear-gradient-77);}.cls-98{fill:url(#linear-gradient-78);}.cls-99{fill:url(#linear-gradient-79);}.cls-100{fill:url(#linear-gradient-80);}.cls-101{fill:url(#linear-gradient-81);}.cls-102{fill:url(#linear-gradient-82);}.cls-103{fill:url(#linear-gradient-83);}.cls-104{fill:url(#linear-gradient-84);}.cls-105,.cls-110{opacity:0.2;}.cls-105{fill:url(#linear-gradient-85);}.cls-106{fill:url(#linear-gradient-86);}.cls-107{fill:url(#linear-gradient-87);}.cls-108{fill:url(#linear-gradient-88);}.cls-109{fill:url(#linear-gradient-89);}.cls-111{fill:url(#linear-gradient-90);}.cls-112{fill:url(#linear-gradient-91);}.cls-113{fill:url(#linear-gradient-92);}.cls-114{fill:url(#linear-gradient-93);}.cls-115{fill:url(#linear-gradient-94);}.cls-116{fill:url(#linear-gradient-95);}.cls-117{fill:url(#linear-gradient-96);}.cls-119{fill:url(#linear-gradient-97);}</style><linearGradient id="linear-gradient" x1="6360.77" y1="1599.23" x2="6425.16" y2="1599.23" gradientTransform="matrix(-1, 0, 0, 1, 7527.32, 0)" gradientUnits="userSpaceOnUse"><stop offset="0" stop-color="#311944"/><stop offset="1" stop-color="#6b3976"/></linearGradient><linearGradient id="linear-gradient-2" x1="6405.14" y1="1595.58" x2="6458.43" y2="1435.71" gradientTransform="matrix(-1, 0, 0, 1, 7527.32, 0)" gradientUnits="userSpaceOnUse"><stop offset="0" stop-color="#ffc444"/><stop offset="1" stop-color="#f36f56"/></linearGradient><linearGradient id="linear-gradient-3" x1="6173" y1="1575.36" x2="6237.39" y2="1575.36" xlink:href="#linear-gradient"/><linearGradient id="linear-gradient-4" x1="6220.8" y1="1574.16" x2="6279.48" y2="1398.12" xlink:href="#linear-gradient-2"/><linearGradient id="linear-gradient-5" x1="-6136.68" y1="908.65" x2="-5994.19" y2="1445.46" gradientTransform="translate(7297.03)" xlink:href="#linear-gradient"/><linearGradient id="linear-gradient-6" x1="-6312.19" y1="1258.58" x2="-6107.76" y2="1258.58" gradientTransform="translate(7297.03)" xlink:href="#linear-gradient"/><linearGradient id="linear-gradient-7" x1="-6151.9" y1="918.05" x2="-5800.65" y2="590" gradientTransform="translate(7297.03)" gradientUnits="userSpaceOnUse"><stop offset="0" stop-color="#ff9085"/><stop offset="1" stop-color="#fb6fbb"/></linearGradient><linearGradient id="linear-gradient-8" x1="-6030.94" y1="810.37" x2="-6091.69" y2="1018.02" gradientTransform="translate(7297.03)" gradientUnits="userSpaceOnUse"><stop offset="0" stop-color="#ab316d"/><stop offset="1" stop-color="#792d3d"/></linearGradient><linearGradient id="linear-gradient-9" x1="-6151.91" y1="918.04" x2="-5800.66" y2="589.99" xlink:href="#linear-gradient-7"/><linearGradient id="linear-gradient-10" x1="-4042.99" y1="4863.74" x2="-4034.89" y2="4647.82" gradientTransform="translate(7654.55 286.04) rotate(46.63)" xlink:href="#linear-gradient-8"/><linearGradient id="linear-gradient-11" x1="7207.71" y1="3676.02" x2="7155.96" y2="3544.58" gradientTransform="matrix(-0.84, -0.54, -0.54, 0.84, 9445.04, 1404.96)" gradientUnits="userSpaceOnUse"><stop offset="0" stop-color="#444b8c"/><stop offset="1" stop-color="#26264f"/></linearGradient><linearGradient id="linear-gradient-12" x1="-5861.94" y1="3177.77" x2="-5864.25" y2="3364.31" gradientTransform="matrix(0.88, 0.48, -0.48, 0.88, 8145.99, 639.09)" xlink:href="#linear-gradient-8"/><linearGradient id="linear-gradient-13" x1="-6223.54" y1="841.35" x2="-5872.29" y2="513.3" xlink:href="#linear-gradient-7"/><linearGradient id="linear-gradient-14" x1="1829.42" y1="2477.37" x2="1829.42" y2="2693.61" gradientUnits="userSpaceOnUse"><stop offset="0.49" stop-color="#ebeff2"/><stop offset="1" stop-color="#fff"/></linearGradient><linearGradient id="linear-gradient-15" x1="2259.13" y1="564.39" x2="781.56" y2="3519.52" gradientUnits="userSpaceOnUse"><stop offset="0" stop-color="#e38ddd"/><stop offset="1" stop-color="#9571f6"/></linearGradient><linearGradient id="linear-gradient-16" x1="1608.61" y1="487.15" x2="1887.27" y2="1601.83" xlink:href="#linear-gradient-15"/><linearGradient id="linear-gradient-17" x1="2190.56" y1="1108.25" x2="2241.17" y2="1846.06" xlink:href="#linear-gradient-15"/><linearGradient id="linear-gradient-18" x1="2175.38" y1="1436.75" x2="2302.64" y2="3292.11" xlink:href="#linear-gradient-15"/><linearGradient id="linear-gradient-19" x1="-1017.34" y1="1821.38" x2="-1258.1" y2="2975.67" gradientTransform="translate(2930.63)" xlink:href="#linear-gradient-2"/><linearGradient id="linear-gradient-20" x1="3441.15" y1="2963.36" x2="3513.25" y2="2963.36" gradientTransform="matrix(-1, 0.03, 0.03, 1, 5136.3, -31.24)" xlink:href="#linear-gradient-11"/><linearGradient id="linear-gradient-21" x1="3876.17" y1="2376.98" x2="3952.77" y2="2376.98" gradientTransform="matrix(-0.96, 0.27, 0.27, 0.96, 5123.48, -308.92)" xlink:href="#linear-gradient-11"/><linearGradient id="linear-gradient-22" x1="-939.58" y1="2885.85" x2="-1143.89" y2="2425.28" gradientTransform="translate(2930.63)" gradientUnits="userSpaceOnUse"><stop offset="0" stop-color="#aa80f9"/><stop offset="1" stop-color="#6165d7"/></linearGradient><linearGradient id="linear-gradient-23" x1="-1457.36" y1="2640.83" x2="-1661.67" y2="2180.26" gradientTransform="matrix(0.99, -0.12, 0.12, 0.99, 3013.63, 108.12)" xlink:href="#linear-gradient-22"/><linearGradient id="linear-gradient-24" x1="-1100.71" y1="1804" x2="-1341.46" y2="2958.28" gradientTransform="translate(2930.63)" xlink:href="#linear-gradient-2"/><linearGradient id="linear-gradient-25" x1="-1307.75" y1="2791.19" x2="-1216.38" y2="2357.18" gradientTransform="translate(2930.63)" xlink:href="#linear-gradient-2"/><linearGradient id="linear-gradient-26" x1="-1265.63" y1="1769.6" x2="-1506.38" y2="2923.89" gradientTransform="translate(2930.63)" xlink:href="#linear-gradient-2"/><linearGradient id="linear-gradient-27" x1="-1060.38" y1="2414.03" x2="-1099.33" y2="2303.65" gradientTransform="translate(2930.63)" gradientUnits="userSpaceOnUse"><stop offset="0" stop-color="#444b8c"/><stop offset="1" stop-color="#3e4177"/></linearGradient><linearGradient id="linear-gradient-28" x1="-1230.57" y1="2254.11" x2="-1216.28" y2="2352.8" xlink:href="#linear-gradient-27"/><linearGradient id="linear-gradient-29" x1="-947.52" y1="2262.75" x2="-1023.48" y2="2154.9" xlink:href="#linear-gradient-27"/><linearGradient id="linear-gradient-30" x1="-1093.22" y1="2441.25" x2="-926.99" y2="2103.61" xlink:href="#linear-gradient-27"/><linearGradient id="linear-gradient-31" x1="-1174.41" y1="2224.54" x2="-809.25" y2="2224.54" xlink:href="#linear-gradient-27"/><linearGradient id="linear-gradient-32" x1="4411.01" y1="1182.66" x2="4356.49" y2="1044.17" gradientTransform="matrix(-0.94, 0.33, 0.33, 0.94, 5482.48, -596.25)" xlink:href="#linear-gradient"/><linearGradient id="linear-gradient-33" x1="4394.36" y1="1189.29" x2="4339.77" y2="1050.67" gradientTransform="matrix(-0.94, 0.33, 0.33, 0.94, 5482.48, -596.25)" xlink:href="#linear-gradient"/><linearGradient id="linear-gradient-34" x1="4257.26" y1="1492.45" x2="4514.02" y2="2007.7" gradientTransform="matrix(-1, 0, 0, 1, 5326.56, 0)" xlink:href="#linear-gradient-2"/><linearGradient id="linear-gradient-35" x1="779.21" y1="1830.88" x2="1028.6" y2="2293.43" gradientTransform="translate(4.45)" xlink:href="#linear-gradient-2"/><linearGradient id="linear-gradient-36" x1="710.72" y1="1861.62" x2="953" y2="2347.81" gradientTransform="translate(4.45)" xlink:href="#linear-gradient-2"/><linearGradient id="linear-gradient-37" x1="3199.52" y1="2126.39" x2="3214.57" y2="2317.96" gradientTransform="translate(-626.26)" gradientUnits="userSpaceOnUse"><stop offset="0" stop-color="#26264f"/><stop offset="1" stop-color="#444b8c"/></linearGradient><linearGradient id="linear-gradient-38" x1="3235.27" y1="2233.29" x2="3232.54" y2="2035.42" gradientTransform="translate(-626.26)" gradientUnits="userSpaceOnUse"><stop offset="0" stop-color="#893976"/><stop offset="1" stop-color="#311944"/></linearGradient><linearGradient id="linear-gradient-39" x1="3452.99" y1="2103.98" x2="3468.08" y2="2296.05" xlink:href="#linear-gradient-37"/><linearGradient id="linear-gradient-40" x1="3467.69" y1="2229.7" x2="3464.96" y2="2031.86" xlink:href="#linear-gradient-38"/><linearGradient id="linear-gradient-41" x1="2566.74" y1="1912.89" x2="2697.53" y2="1912.89" gradientTransform="matrix(1, 0, 0, 1, 0, 0)" xlink:href="#linear-gradient-8"/><linearGradient id="linear-gradient-42" x1="2575.79" y1="1912.9" x2="2697.53" y2="1912.9" gradientTransform="matrix(1, 0, 0, 1, 0, 0)" xlink:href="#linear-gradient-8"/><linearGradient id="linear-gradient-43" x1="2603.05" y1="1898.48" x2="2866.34" y2="1898.48" gradientTransform="matrix(1, 0, 0, 1, 0, 0)" xlink:href="#linear-gradient-8"/><linearGradient id="linear-gradient-44" x1="3499.73" y1="1292.1" x2="3724.61" y2="1497.92" gradientTransform="translate(-333.31 -839.67) rotate(14.31)" xlink:href="#linear-gradient-37"/><linearGradient id="linear-gradient-45" x1="808.7" y1="580.84" x2="855.54" y2="580.84" gradientTransform="translate(1121.88 1149.01) rotate(-25.49)" xlink:href="#linear-gradient-38"/><linearGradient id="linear-gradient-46" x1="1034.85" y1="794.04" x2="1243.5" y2="1541.7" gradientTransform="translate(1121.88 1149.01) rotate(-25.49)" xlink:href="#linear-gradient-22"/><linearGradient id="linear-gradient-47" x1="2631.55" y1="1308.16" x2="2840.2" y2="2055.83" gradientTransform="matrix(1, 0, 0, 1, 0, 0)" xlink:href="#linear-gradient-22"/><linearGradient id="linear-gradient-48" x1="2510.18" y1="1455.16" x2="2428.22" y2="1591.01" gradientUnits="userSpaceOnUse"><stop offset="0" stop-color="#6165d7"/><stop offset="1" stop-color="#aa80f9"/></linearGradient><linearGradient id="linear-gradient-49" x1="2565.91" y1="1450.28" x2="2362.86" y2="1558.35" gradientTransform="matrix(1, 0, 0, 1, 0, 0)" xlink:href="#linear-gradient-7"/><linearGradient id="linear-gradient-50" x1="2473.6" y1="1312.74" x2="2449.5" y2="1391.61" gradientTransform="matrix(1, 0, 0, 1, 0, 0)" xlink:href="#linear-gradient-37"/><linearGradient id="linear-gradient-51" x1="2558.05" y1="1437.26" x2="2356.03" y2="1544.79" gradientTransform="matrix(1, 0, 0, 1, 0, 0)" xlink:href="#linear-gradient-7"/><linearGradient id="linear-gradient-52" x1="2532.01" y1="1520.98" x2="2605.96" y2="1520.98" gradientTransform="matrix(1, 0, 0, 1, 0, 0)" xlink:href="#linear-gradient-38"/><linearGradient id="linear-gradient-53" x1="2498.49" y1="1520.46" x2="2978.48" y2="1520.46" gradientTransform="matrix(1, 0, 0, 1, 0, 0)" xlink:href="#linear-gradient-22"/><linearGradient id="linear-gradient-54" x1="2653.89" y1="1301.93" x2="2862.54" y2="2049.6" gradientTransform="matrix(1, 0, 0, 1, 0, 0)" xlink:href="#linear-gradient-22"/><linearGradient id="linear-gradient-55" x1="2904.42" y1="1517.91" x2="2999.06" y2="1380.54" gradientTransform="translate(-614.82 371.98) rotate(-11.85)" xlink:href="#linear-gradient-38"/><linearGradient id="linear-gradient-56" x1="2893.69" y1="1450.49" x2="3060.94" y2="1349.79" gradientTransform="translate(-614.82 371.98) rotate(-11.85)" xlink:href="#linear-gradient-38"/><linearGradient id="linear-gradient-57" x1="-527.3" y1="2872.6" x2="-584.27" y2="2798.36" gradientTransform="matrix(-1, 0, 0, 1, 230.29, 0)" gradientUnits="userSpaceOnUse"><stop offset="0" stop-color="#311944"/><stop offset="1" stop-color="#893976"/></linearGradient><linearGradient id="linear-gradient-58" x1="-657.19" y1="2706.76" x2="-583.98" y2="2512.71" xlink:href="#linear-gradient-57"/><linearGradient id="linear-gradient-59" x1="-698.13" y1="2741.38" x2="-699.25" y2="2836.34" xlink:href="#linear-gradient-57"/><linearGradient id="linear-gradient-60" x1="559.73" y1="2231.99" x2="995.31" y2="2527.86" gradientTransform="matrix(1, 0, 0, 1, 0, 0)" xlink:href="#linear-gradient"/><linearGradient id="linear-gradient-61" x1="1077.38" y1="2375.25" x2="1092.9" y2="2624.68" xlink:href="#linear-gradient-15"/><linearGradient id="linear-gradient-62" x1="-1061.92" y1="3084.07" x2="-980.91" y2="3084.07" gradientTransform="matrix(-1, 0, 0, 1, 230.29, 0)" xlink:href="#linear-gradient"/><linearGradient id="linear-gradient-63" x1="-1023.71" y1="3116" x2="-902.85" y2="2753.4" gradientTransform="matrix(-1, 0, 0, 1, 230.29, 0)" xlink:href="#linear-gradient-2"/><linearGradient id="linear-gradient-64" x1="-1049.02" y1="2935.32" x2="-999.48" y2="2935.32" gradientTransform="matrix(-1, 0, 0, 1, 230.29, 0)" xlink:href="#linear-gradient"/><linearGradient id="linear-gradient-65" x1="-1077.74" y1="3071.36" x2="-996.84" y2="2828.65" gradientTransform="matrix(-1, 0, 0, 1, 230.29, 0)" xlink:href="#linear-gradient-2"/><linearGradient id="linear-gradient-66" x1="-978.05" y1="2662.45" x2="-917.71" y2="3011.31" gradientTransform="matrix(-1, 0, 0, 1, 230.29, 0)" xlink:href="#linear-gradient-8"/><linearGradient id="linear-gradient-67" x1="-892.83" y1="3075.9" x2="-807.03" y2="2804.36" gradientTransform="matrix(-1, 0, 0, 1, 230.29, 0)" xlink:href="#linear-gradient-8"/><linearGradient id="linear-gradient-68" x1="-892.83" y1="3075.91" x2="-807.03" y2="2804.36" gradientTransform="matrix(-1, 0, 0, 1, 230.29, 0)" xlink:href="#linear-gradient-8"/><linearGradient id="linear-gradient-69" x1="-772.09" y1="2627.24" x2="-711.89" y2="2975.3" gradientTransform="matrix(-1, 0, 0, 1, 230.29, 0)" xlink:href="#linear-gradient-8"/><linearGradient id="linear-gradient-70" x1="-859.14" y1="2411.16" x2="-324.33" y2="2607" gradientTransform="matrix(-1, 0, 0, 1, 230.29, 0)" xlink:href="#linear-gradient-15"/><linearGradient id="linear-gradient-71" x1="2857.4" y1="2169.13" x2="2863.55" y2="2005.37" gradientTransform="translate(-1518.15 -244.24) rotate(10.28)" xlink:href="#linear-gradient-2"/><linearGradient id="linear-gradient-72" x1="395.04" y1="329.66" x2="392.41" y2="541.71" gradientTransform="translate(401.22 2171.71) rotate(-30.56)" xlink:href="#linear-gradient-2"/><linearGradient id="linear-gradient-73" x1="774.78" y1="2397.49" x2="790.63" y2="2652.33" xlink:href="#linear-gradient-15"/><linearGradient id="linear-gradient-74" x1="1030.67" y1="2452.06" x2="1499.1" y2="2452.06" gradientTransform="matrix(1, 0, 0, 1, 0, 0)" xlink:href="#linear-gradient-27"/><linearGradient id="linear-gradient-75" x1="1037.28" y1="2454.4" x2="1501.88" y2="2454.4" gradientTransform="matrix(1, 0, 0, 1, 0, 0)" xlink:href="#linear-gradient-27"/><linearGradient id="linear-gradient-76" x1="1037.28" y1="2538.04" x2="1457.7" y2="2538.04" gradientTransform="matrix(1, 0, 0, 1, 0, 0)" xlink:href="#linear-gradient-27"/><linearGradient id="linear-gradient-77" x1="1170.05" y1="2626.1" x2="1267.34" y2="2626.1" gradientTransform="matrix(1, 0, 0, 1, 0, 0)" xlink:href="#linear-gradient-27"/><linearGradient id="linear-gradient-78" x1="1172.02" y1="2621.53" x2="1268.41" y2="2621.53" gradientTransform="matrix(1, 0, 0, 1, 0, 0)" xlink:href="#linear-gradient-27"/><linearGradient id="linear-gradient-79" x1="1251.63" y1="2546.06" x2="1371.97" y2="2546.06" gradientTransform="matrix(1, 0, 0, 1, 0, 0)" xlink:href="#linear-gradient-27"/><linearGradient id="linear-gradient-80" x1="1256.91" y1="2546.02" x2="1377.16" y2="2546.02" gradientTransform="matrix(1, 0, 0, 1, 0, 0)" xlink:href="#linear-gradient-27"/><linearGradient id="linear-gradient-81" x1="909.93" y1="2584.41" x2="926.54" y2="2641.72" gradientTransform="matrix(1, 0, 0, 1, 0, 0)" xlink:href="#linear-gradient-2"/><linearGradient id="linear-gradient-82" x1="-5992.21" y1="1089.02" x2="-5640.97" y2="760.98" xlink:href="#linear-gradient-7"/><linearGradient id="linear-gradient-83" x1="1954.72" y1="1075.76" x2="1004.05" y2="1049.35" gradientTransform="matrix(1, 0, 0, 1, 0, 0)" xlink:href="#linear-gradient-2"/><linearGradient id="linear-gradient-84" x1="1678.7" y1="569.92" x2="911.04" y2="2151.56" gradientTransform="matrix(1, 0, 0, 1, 0, 0)" xlink:href="#linear-gradient-2"/><linearGradient id="linear-gradient-85" x1="1575.13" y1="784.09" x2="1027.72" y2="1911.93" gradientTransform="matrix(1, 0, 0, 1, 0, 0)" xlink:href="#linear-gradient-2"/><linearGradient id="linear-gradient-86" x1="1329.25" y1="840.8" x2="1231.31" y2="838.08" gradientTransform="matrix(1, 0, 0, 1, 0, 0)" xlink:href="#linear-gradient-8"/><linearGradient id="linear-gradient-87" x1="1604.43" y1="853.45" x2="1506.5" y2="850.73" gradientTransform="matrix(1, 0, 0, 1, 0, 0)" xlink:href="#linear-gradient-8"/><linearGradient id="linear-gradient-88" x1="4303.27" y1="952.41" x2="4528.14" y2="1403.67" gradientTransform="matrix(-1, 0, 0, 1, 5326.56, 0)" xlink:href="#linear-gradient-22"/><linearGradient id="linear-gradient-89" x1="807.43" y1="1248.81" x2="1025.85" y2="1653.91" gradientTransform="translate(-34.32)" xlink:href="#linear-gradient-22"/><linearGradient id="linear-gradient-90" x1="747.45" y1="1275.73" x2="959.64" y2="1701.54" gradientTransform="translate(-34.32)" xlink:href="#linear-gradient-22"/><linearGradient id="linear-gradient-91" x1="3880.87" y1="962.08" x2="4139.46" y2="1481.01" gradientTransform="matrix(-1, 0, 0, 1, 5326.56, 0)" xlink:href="#linear-gradient-7"/><linearGradient id="linear-gradient-92" x1="1109.68" y1="1468.77" x2="1360.84" y2="1934.62" gradientTransform="translate(-34.32)" xlink:href="#linear-gradient-7"/><linearGradient id="linear-gradient-93" x1="1040.7" y1="1499.73" x2="1284.7" y2="1989.39" gradientTransform="translate(-34.32)" xlink:href="#linear-gradient-7"/><linearGradient id="linear-gradient-94" x1="2589.49" y1="953.11" x2="2973.36" y2="953.11" gradientTransform="matrix(1, 0, 0, 1, 0, 0)" xlink:href="#linear-gradient-2"/><linearGradient id="linear-gradient-95" x1="2618.22" y1="853.17" x2="2938.71" y2="1275.24" gradientTransform="matrix(1, 0, 0, 1, 0, 0)" xlink:href="#linear-gradient-2"/><linearGradient id="linear-gradient-96" x1="2624.75" y1="2455" x2="2383.25" y2="4324.65" gradientTransform="matrix(1, 0, 0, 1, 0, 0)" xlink:href="#linear-gradient-7"/><linearGradient id="linear-gradient-97" x1="2480.15" y1="2737.9" x2="2324.26" y2="3944.77" gradientTransform="matrix(1, 0, 0, 1, 0, 0)" xlink:href="#linear-gradient-22"/></defs><g class="cls-1"><g id="Background"><rect class="cls-2" width="3710" height="3710"/></g><g id="Illustration"><path class="cls-3" d="M3221.44,1651C3145.12,1151.42,2832.22,537.7,2214,473.48c0,0-469.35-57.09-932,29.43-274.6,51.35-515.38,204.22-667.74,423.92s-203.25,487.61-141.49,743c40.12,165.89,67.22,337.58,59.78,508-12.94,296.68-5.49,573.6,282.42,750.53,257.08,158,580.61,297.31,889.27,321.71,209.76,16.59,445-10.25,647.16-64.86C3381.71,2907,3297.76,2150.51,3221.44,1651Z"/><path class="cls-4" d="M2909.26,1153l-56.77-10.56a411.61,411.61,0,0,0-6.19-112.23l53.21-18.82c14.54-5.14,22.25-21.45,17.24-36.46l-13.36-40c-5-15.11-21-23.3-35.65-18.27l-52.44,18a424.19,424.19,0,0,0-62.66-97.42l36.05-41.7c10.34-12,9-30.52-3-41.49l-32.06-29.32c-12.11-11.08-30.46-10.36-41,1.66l-36,41.21a431.58,431.58,0,0,0-106.56-55.69l10.31-55c3.05-16.21-7.71-32.47-24.07-36.32l-43.79-10.3c-16.57-3.9-32.54,6.21-35.62,22.6l-10.43,55.56a436.93,436.93,0,0,0-123.45,4.83L2323,637.45c-5.9-16.38-24.07-25.72-40.62-20.81l-44.28,13.14c-16.75,5-25.45,22.41-19.41,38.93l20.9,57.12a434.12,434.12,0,0,0-104.41,67.38l-49.39-41.63c-14-11.81-35-11-46.81,1.89l-31.59,34.34c-11.92,13-10.06,33,4.14,44.77L2062.78,875a415.5,415.5,0,0,0-53.1,110.71l-68.61-12.76c-18.46-3.44-36.1,7.74-39.33,25l-8.6,45.81c-3.24,17.23,9.19,33.83,27.69,37.06l70.57,12.34a411.49,411.49,0,0,0,13.09,119.79l-68.77,23.6c-17.53,6-26.56,24.12-20.13,40.39l17.05,43.12c6.39,16.16,25.69,24.25,43.06,18.1l69.7-24.65a426.11,426.11,0,0,0,72.18,93.81l-47.78,54.67c-11.65,13.32-9.85,32.67,4,43.15l36.61,27.73c13.69,10.37,34.06,8,45.52-5.27l47.53-55A433.63,433.63,0,0,0,2311,1516.74l-12.92,68.82c-3.08,16.39,8.17,31.42,25.07,33.56l44.67,5.65c16.69,2.11,32.64-9.32,35.68-25.54l12.78-68.07a437,437,0,0,0,113.23-13l22.81,62.35c5.45,14.9,22.34,22,37.69,15.84l40.6-16.21c15.18-6.06,23.15-22.93,17.83-37.73l-22-61.22a433,433,0,0,0,91.5-64.39l48.38,40c11.87,9.83,29.75,7.73,39.94-4.62l27-32.77c10.13-12.28,8.86-30.21-2.87-40.09L2783.76,1340a415.25,415.25,0,0,0,48.79-99.8L2891,1250.4c15.06,2.64,29.58-7.77,32.48-23.24l7.73-41.15C2934.08,1170.54,2924.29,1155.75,2909.26,1153Zm-523.05,252.41c-169.11-25.29-285.18-182-253.78-349.22s196.73-273,363.9-237.35c161.49,34.4,264.52,188.77,235,345.83S2549.57,1429.8,2386.21,1405.36Z"/><polygon class="cls-4" points="2338.2 624.89 2298.04 615.91 2277.29 649.53 2338.2 624.89"/><polygon class="cls-4" points="2735.88 716.86 2782.4 726.08 2775.95 760.46 2735.88 716.86"/><polygon class="cls-4" points="2882.38 916.07 2928.49 926.66 2911.99 950.5 2882.38 916.07"/><polygon class="cls-4" points="2913.19 1154.19 2959.42 1166.72 2939.81 1186.61 2913.19 1154.19"/><polygon class="cls-4" points="2774.68 1461.52 2818.99 1476.57 2831.55 1440.45 2774.68 1461.52"/><polygon class="cls-4" points="2568.96 1596.54 2608.45 1611.65 2617.37 1582.06 2568.96 1596.54"/><polygon class="cls-4" points="2350.92 1630.64 2315.43 1617.24 2355.84 1576.25 2350.92 1630.64"/><polygon class="cls-4" points="2159.47 1553.81 2118.39 1536.96 2158.87 1503.2 2159.47 1553.81"/><polygon class="cls-4" points="2063.01 743.02 2107.36 752.79 2083.59 782 2063.01 743.02"/><polygon class="cls-4" points="1908.59 1076.22 1948.34 1089.94 1951.37 1055.87 1908.59 1076.22"/><polygon class="cls-4" points="1950.43 1337.56 1989.17 1351.57 1997.39 1325.69 1950.43 1337.56"/><path class="cls-5" d="M2954.42,1165.24l-57.24-10.64a414.62,414.62,0,0,0-6.25-113.14l53.66-19c14.66-5.18,22.43-21.63,17.38-36.76l-13.47-40.38c-5.08-15.22-21.16-23.49-35.95-18.41l-52.87,18.14a428,428,0,0,0-63.18-98.22l36.34-42c10.43-12.06,9.1-30.76-3-41.82l-32.31-29.56c-12.22-11.17-30.72-10.45-41.31,1.67l-36.32,41.55a435.49,435.49,0,0,0-107.45-56.15l10.4-55.41c3.07-16.34-7.78-32.73-24.28-36.61l-44.15-10.39c-16.71-3.94-32.81,6.26-35.91,22.78l-10.52,56a440.78,440.78,0,0,0-124.47,4.87l-20.22-56.22c-5.94-16.52-24.26-25.93-41-21l-44.64,13.24c-16.89,5-25.66,22.59-19.57,39.25l21.08,57.59a437.38,437.38,0,0,0-105.28,67.93l-49.8-42c-14.12-11.9-35.26-11.07-47.2,1.9l-31.85,34.63c-12,13.06-10.14,33.29,4.18,45.13L2100.93,885a418.94,418.94,0,0,0-53.55,111.61l-69.17-12.86c-18.62-3.46-36.4,7.8-39.66,25.17l-8.67,46.18c-3.26,17.37,9.27,34.1,27.92,37.36l71.15,12.44a414.66,414.66,0,0,0,13.21,120.77l-69.34,23.79c-17.68,6.07-26.78,24.32-20.29,40.72l17.19,43.47c6.44,16.3,25.9,24.45,43.41,18.25l70.28-24.85a430.11,430.11,0,0,0,72.78,94.58L2108,1476.7c-11.74,13.43-9.93,32.93,4,43.51l36.92,28c13.8,10.45,34.34,8,45.89-5.32l47.92-55.43A437.5,437.5,0,0,0,2351.22,1532l-13,69.38c-3.11,16.52,8.24,31.67,25.28,33.83l45,5.7c16.83,2.13,32.92-9.4,36-25.75l12.88-68.63a439.85,439.85,0,0,0,114.17-13.1l23,62.86c5.5,15,22.52,22.15,38,16l40.93-16.34c15.31-6.11,23.35-23.12,18-38l-22.2-61.72a436.65,436.65,0,0,0,92.25-64.92l48.78,40.34c12,9.9,30,7.79,40.28-4.66l27.25-33c10.21-12.38,8.93-30.46-2.89-40.43l-47.05-39.65a419.08,419.08,0,0,0,49.19-100.62l58.9,10.3c15.18,2.66,29.83-7.84,32.76-23.43l7.78-41.48C2979.45,1183,2969.58,1168.06,2954.42,1165.24ZM2427,1419.7c-170.5-25.51-287.54-183.51-255.89-352.08s198.36-275.18,366.91-239.27c162.83,34.69,266.72,190.31,237,348.66S2591.76,1444.34,2427,1419.7Z"/><path class="cls-6" d="M1153.35,1599.22l-32.22-19.36h-14.54s-4.95,18.43-4.39,19.36c6.48,10.61,36.64,18.69,55.46,19.35,3.12.11,7.49.13,8.61-2.13C1168.18,1612.6,1159.66,1604.55,1153.35,1599.22Z"/><path class="cls-7" d="M1120.56,1558.74c0,11.27.43,19.23,3.25,22.73,2,2.46-17.11,8-17.22-1.61-.06-6.33-1.06-17.19-2.07-20.38Z"/><path class="cls-8" d="M1341.12,1575.34,1308.9,1556h-14.53s-5,18.43-4.4,19.35c6.48,10.62,36.64,18.69,55.46,19.36,3.13.11,7.49.13,8.61-2.14C1356,1588.73,1347.43,1580.68,1341.12,1575.34Z"/><path class="cls-9" d="M1299.12,1535c4.69,9,9.64,19.1,12.47,22.6,2,2.46-13.89,7.41-17.22-1.61-2.71-7.32-10.28-17-11.3-20.24Z"/><path class="cls-10" d="M1292.49,1006.89a1437.28,1437.28,0,0,0,19.88,533.5l-29.82,7.73c-12.38-2.87-29.92-9.07-42-24.3-15.85-20-8.62-38.49-19.88-71.8-10.76-31.79-23.6-33.48-36.45-60.75-16.77-35.56-6.53-57.34-7.74-104.93-2-80.5-33.07-86.74-43.07-186.67-5.24-52.31-7.82-82.35,11-101.61C1170.9,971.09,1229,975.87,1292.49,1006.89Z"/><path class="cls-11" d="M1224,990.17a1468.37,1468.37,0,0,0-119.29,558.9h-33.14a208.71,208.71,0,0,1-29.82-64.06c-7.62-28.41-2.83-35.74-7.73-80.63-6.69-61.19-15.45-64-14.36-100.52,1.24-41.95,14-41.79,18.78-83.94,7.07-62.36-18.69-81.61-17.68-139.17.46-25.86,6.41-64.82,35.35-112.67Z"/><path class="cls-12" d="M1213.79,600.27c33.88-10.86,60.41-7.85,107.7-2.49,69,7.83,113.25,30.71,151.59,50.54,37.69,19.49,47.67,30.48,53,43.07,12.48,29.37-2.72,61.44-12.42,81.19-24.77,50.41-47.76,48.66-100.24,109.35-46.18,53.39-69.26,80.08-84.5,119.29-6.74,17.34-13.32,39.8-34.79,53-20.84,12.82-44.51,10-58,8.28-56.65-7.41-61.67-44-98.58-41.42-29.41,2-35.79,25.91-86.16,34-22.51,3.6-29.07.09-32.3-2.48-12.26-9.73-10.83-33,.82-80.36,17.93-72.8,33.9-96.41,48.88-154.08,15.56-59.89,3.58-54.63,16.57-88.64C1089.76,718.07,1125.53,628.55,1213.79,600.27Z"/><path class="cls-13" d="M1215.73,859.93l25.56-11.15s9.76-13.95,17.66-16.27,36.25.93,36.25.93-2.79,11.15-8.36,13-22.78,3.25-25.57,8.83-13,9.76-16.73,7.9-27.42,6.05-27.42,6.05Z"/><path class="cls-14" d="M1224.56,1032.7c-11.78-14.39-5.42-31.65-21.54-46.39-26.24-24-73.74-6.25-76.21-14.91C1123.85,961,1195,946,1203,905.12c3.64-18.52-9.76-21.67-8.28-46.39,1.38-23.17,15.85-42.27,44.73-79.52,22.81-29.42,29-31.81,29.83-43.08,2.56-33.88-40.24-57.46-58-69.59a162.36,162.36,0,0,0-65.57-26c-39.51,36.39-57.35,81.14-60.35,89-13,34-1,28.75-16.57,88.64-15,57.67-31,81.28-48.88,154.08-11.65,47.36-13.08,70.63-.82,80.36,3.23,2.57,9.79,6.08,32.3,2.48,50.37-8,56.75-31.92,86.16-34,36.91-2.55,41.93,34,98.58,41.42,13.48,1.77,37.15,4.54,58-8.28a59.3,59.3,0,0,0,12.06-9.86C1256.13,1053.58,1234.44,1044.77,1224.56,1032.7Z"/><path class="cls-15" d="M1456,564.37c-7.57,18.19-35.9,64.07-97.13,41.58-16.38-6-19.18-3.89-20.13-2.63-4.62,6.16,28.21,47.13,74.65,59.61,28.34,7.62,58.64,3.8,60.25-4.09s-18.62-7.21-20.95-23.78c-1.62-11.53,21.7-25.34,33.69-33.13C1484.38,586.86,1457.93,579.47,1456,564.37Z"/><path class="cls-16" d="M1506.9,600.32c10.49-3.45,19-15.32,17.43-27-1.34-10-9.79-16.43-14.85-20.27-14.69-11.11-38.63-17.19-54.38-8.34-9.33,5.25-11.24,26.63-11.79,30.35-.61,4.21,1.5,7,2.49,11.09,1.37,5.62,3.46,14.49,6.72,29.18a69.64,69.64,0,0,1,10.07-7.46,65.56,65.56,0,0,1,15.12-6.79C1492,597,1496.94,603.58,1506.9,600.32Z"/><path class="cls-17" d="M1444.27,599.71a39.27,39.27,0,0,0,21.67,32.62c19.26,9.95,47-25.56,40.48-40.5-2.17-5-9.33-10.8-16.84-13-4.44-1.32-6.67-.68-13.89-3-6.66-2.11-7.9-3.65-10.53-3.39-3.28.34-7.58,3.4-11.28,16.44-1.38-5.32-4.8-9.09-8.68-9.62a7.77,7.77,0,0,0-3.93.67C1435.8,582.63,1436.49,590.66,1444.27,599.71Z"/><path class="cls-18" d="M1323.14,611.87c-22.39-37.8-127.8-24-198.82,17.39-23.12,13.48-93.64,54.56-98.58,125.92-.53,7.76-1.91,39.27,16.57,68.76,31.09,49.6,104.59,71.48,182.25,52.19q-1.24-12.43-2.48-24.85c-6.62.23-32.94.37-56.34-19.06-4.68-3.89-32.53-27-28.16-48,7.33-35.3,95.36-16.06,152.43-75.39C1315.59,682.19,1337.88,636.75,1323.14,611.87Z"/><path class="cls-4" d="M2028.27,2683.45a92,92,0,0,1-61-69.25l-45.34-224.38-387.8,13.77-47.72,233.75c-6.69,32.74,20.07,65.58,50.88,77.64l162.25,63.48a211,211,0,0,0,94.86,13.75l342.89-29.33a21.28,21.28,0,0,0,19.23-18.85c1.16-10.11,8.19-21.46-1.37-24.63Z"/><path class="cls-19" d="M2032.11,2669.81a91.2,91.2,0,0,1-60.93-68.39l-45.29-221.55-378.35,13.61-47.68,230.81a67.52,67.52,0,0,0,41.78,76.64l162.08,62.69a213,213,0,0,0,94.76,13.58l342.54-29a21.13,21.13,0,0,0,4.81-41.14Z"/><path class="cls-4" d="M741.72,2539c-42.05,2.51-76.46-24.77-76.46-60.83V1178.64c0-36.05,34.41-63.9,76.46-62.07l1944.85,84.26c30.88,1.34,55.88,27.37,55.88,58v1105.2c0,30.66-25,57.1-55.88,58.94Z"/><path class="cls-2" d="M759.2,2539c-42.05,2.51-76.46-24.77-76.46-60.83V1178.64c0-36.05,34.41-63.9,76.46-62.07l1944.85,84.26c30.88,1.34,55.88,27.37,55.88,58v1105.2c0,30.66-25,57.1-55.88,58.94Z"/><path class="cls-20" d="M2704.05,1226.84l-1944.85-80c-22.48-.93-40.76,13.93-40.76,33.18V2476.16c0,19.25,18.28,33.81,40.76,32.52L2704.05,2397c16.55-.95,29.93-15.06,29.93-31.51V1257.86A31.39,31.39,0,0,0,2704.05,1226.84Z"/><path class="cls-5" d="M759.2,2398.29c-8.75.43-15.88-5.31-15.88-12.8V1181c0-7.49,7.13-13.3,15.88-13l1944.85,77a12.26,12.26,0,0,1,11.7,12.11V2289.92a12.4,12.4,0,0,1-11.7,12.22Z"/><path class="cls-21" d="M2501,2342.57c-163.62-101.21-49.34-389-233.09-533.56-185.25-145.78-445.93,33-575.69-118-96.62-112.41,16.43-248.13-75.82-353.84-144.69-165.78-515.06,62.22-685.22-101.1-24.16-23.19-48.54-58.37-62.41-114.81l-109.59-4.74c-42.05-1.83-76.46,26-76.46,62.07V2478.12c0,36.06,34.41,63.34,76.46,60.83L2704.05,2423c30.88-1.84,55.88-28.28,55.88-58.94v-19.65C2630.79,2388.24,2551.84,2374,2501,2342.57Z"/><polygon class="cls-22" points="867.18 2300.05 1335.3 2280.51 1335.3 2035.1 867.18 2046.45 867.18 2300.05"/><g class="cls-23"><g class="cls-24"><polygon class="cls-3" points="2121.22 1877.47 2192.33 1876.48 2192.33 1356.52 2121.22 1354.69 2121.22 1877.47"/><polygon class="cls-3" points="1992.87 1879.24 2065.37 1878.24 2065.37 1615.75 1992.87 1615.32 1992.87 1879.24"/><polygon class="cls-3" points="1862.02 1881.04 1935.93 1880.02 1935.93 1299.72 1862.02 1297.55 1862.02 1881.04"/><polygon class="cls-3" points="1728.58 1882.88 1803.96 1881.84 1803.96 1382.77 1728.58 1381.04 1728.58 1882.88"/><polygon class="cls-3" points="1592.48 1884.76 1669.37 1883.7 1669.37 1748.55 1592.48 1748.86 1592.48 1884.76"/><polygon class="cls-3" points="1453.64 1886.68 1532.08 1885.6 1532.08 1564.76 1453.64 1564.03 1453.64 1886.68"/><polygon class="cls-3" points="1311.98 1888.63 1392.01 1887.53 1392.01 1420.45 1311.98 1418.88 1311.98 1888.63"/><polygon class="cls-3" points="1167.4 1890.63 1249.09 1889.5 1249.09 1545.39 1167.4 1544.53 1167.4 1890.63"/><polygon class="cls-3" points="1019.82 1892.66 1103.21 1891.51 1103.21 1352.24 1019.82 1350.24 1019.82 1892.66"/><polygon class="cls-3" points="869.14 1894.74 954.28 1893.57 954.28 1287.91 869.14 1285.51 869.14 1894.74"/></g></g><polygon class="cls-22" points="2257.64 2242.03 2607.48 2227.43 2607.48 2192.03 2257.64 2205.66 2257.64 2242.03"/><polygon class="cls-22" points="2257.64 1772.49 2607.48 1770.41 2607.48 1735.01 2257.64 1736.12 2257.64 1772.49"/><polygon class="cls-22" points="2257.64 1710.22 2607.48 1709.81 2607.48 1674.4 2257.64 1673.85 2257.64 1710.22"/><polygon class="cls-22" points="2257.64 2191.75 2314.66 2189.59 2314.66 2133.8 2257.64 2135.72 2257.64 2191.75"/><path class="cls-5" d="M2299.87,2007.94c0,74,60.81,131.88,135.05,129.34,73.4-2.51,132.3-63.28,132.3-135.75s-58.9-130.41-132.3-129.41C2360.68,1873.14,2299.87,1934,2299.87,2007.94Z"/><path class="cls-25" d="M2307.71,2003.77c1.68-53.28,36.79-98.77,85.05-116.36a128.48,128.48,0,0,1,42.16-7.77c69.26-1,124.87,53.67,124.87,122.07s-55.61,125.72-124.87,128.05c-70,2.35-127.31-52.26-127.31-122C2307.61,2006.42,2307.67,2005.1,2307.71,2003.77Z"/><path class="cls-22" d="M2307.71,2003.77c1.68-53.28,36.79-98.77,85.05-116.36a128.48,128.48,0,0,1,42.16-7.77c69.26-1,124.87,53.67,124.87,122.07s-55.61,125.72-124.87,128.05c-70,2.35-127.31-52.26-127.31-122C2307.61,2006.42,2307.67,2005.1,2307.71,2003.77Z"/><path class="cls-2" d="M2307.71,2003.77c1.68-53.28,36.79-98.77,85.05-116.36l42.16,117.29Z"/><g class="cls-23"><path class="cls-3" d="M995.75,2145.57c29.73,1.12,34.15-16.1,63.43-17.77,49.65-2.82,61.82,45.51,109.66,44.77,39.06-.61,48.89-33.23,87.56-29.62,28.74,2.69,34.4,21.83,62.43,24.57a67.5,67.5,0,0,0,16.47-.45v113.44l-468.12,19.54V2099.33c25.09,1.81,43.41,7.49,56.53,13.24C955.27,2126.4,965.74,2144.44,995.75,2145.57Z"/></g><polygon class="cls-22" points="2257.64 1624.51 2607.48 1626.38 2607.48 1319.45 2257.64 1309.17 2257.64 1624.51"/><polygon class="cls-22" points="869.14 2018.61 2192.33 1989.06 2192.33 1933.59 869.14 1957.57 869.14 2018.61"/><polygon class="cls-22" points="1392.01 2278.15 2192.33 2244.75 2192.33 2010.51 1392.01 2029.69 1392.01 2278.15"/><path class="cls-26" d="M2551.32,971,959.55,930c-53.38-1.38-96.83,31.64-96.83,73.75V2220.27c0,42.11,43.45,74.79,96.83,73L2551.32,2240c46-1.54,83.22-34.31,83.22-73.19V1043.56C2634.54,1004.68,2597.36,972.2,2551.32,971Z"/><path class="cls-27" d="M2607.81,1043V2167.58c0,26.51-25.25,48.8-56.63,49.84l-720.09,23.33L958.78,2269c-36.31,1.17-66.54-21.06-66.54-49.71V1004.44c0-28.61,30.26-51.09,66.57-50.19l1592.12,39.32c26,.65,48,15.95,54.68,36.28A41.78,41.78,0,0,1,2607.81,1043Z"/><polygon class="cls-2" points="1816.35 1210.66 975.59 1198.81 975.59 1237.57 1816.35 1248 1816.35 1210.66"/><polygon class="cls-2" points="2448.46 1219.57 2448.46 1255.85 2537.41 1256.95 2537.41 1220.82 2448.46 1219.57"/><g class="cls-23"><polygon class="cls-2" points="1153.34 1332.39 975.59 1330.91 975.59 1290.93 1153.34 1292.73 1153.34 1332.39"/><polygon class="cls-2" points="2102.91 1340.32 1266.81 1333.34 1266.81 1293.87 2102.91 1302.31 2102.91 1340.32"/><polygon class="cls-2" points="1440.1 1401.68 1266.81 1400.75 1266.81 1361.29 1440.1 1362.52 1440.1 1401.68"/><polygon class="cls-2" points="2366.45 1406.67 1550.75 1402.28 1550.75 1363.31 2366.45 1369.11 2366.45 1406.67"/><polygon class="cls-2" points="1440.1 1468.59 1266.81 1468.17 1266.81 1428.7 1440.1 1429.42 1440.1 1468.59"/><polygon class="cls-2" points="2366.45 1470.82 1550.75 1468.85 1550.75 1429.88 2366.45 1433.26 2366.45 1470.82"/><polygon class="cls-2" points="1153.34 1535.65 975.59 1535.75 975.59 1495.77 1153.34 1495.98 1153.34 1535.65"/><polygon class="cls-2" points="2102.91 1535.12 1266.81 1535.58 1266.81 1496.12 2102.91 1497.1 2102.91 1535.12"/><polygon class="cls-2" points="1440.1 1602.39 1266.81 1603 1266.81 1563.53 1440.1 1563.22 1440.1 1602.39"/><polygon class="cls-2" points="2366.45 1599.12 1550.75 1602 1550.75 1563.02 2366.45 1561.56 2366.45 1599.12"/><polygon class="cls-2" points="1440.1 1669.29 1266.81 1670.41 1266.81 1630.95 1440.1 1630.12 1440.1 1669.29"/><polygon class="cls-2" points="2366.45 1663.27 1550.75 1668.57 1550.75 1629.6 2366.45 1625.71 2366.45 1663.27"/><polygon class="cls-2" points="1440.1 1736.19 1266.81 1737.83 1266.81 1698.36 1440.1 1697.02 1440.1 1736.19"/><polygon class="cls-2" points="2366.45 1727.42 1550.75 1735.14 1550.75 1696.17 2366.45 1689.86 2366.45 1727.42"/><polygon class="cls-2" points="1722.38 1799.58 1553.42 1801.68 1553.42 1762.71 1722.38 1760.9 1722.38 1799.58"/><polygon class="cls-2" points="2493.02 1789.99 1830.28 1798.24 1830.28 1759.75 2493.02 1752.66 2493.02 1789.99"/><polygon class="cls-2" points="1153.34 1874.41 975.59 1877.15 975.59 1837.17 1153.34 1834.74 1153.34 1874.41"/><polygon class="cls-2" points="2102.91 1859.78 1266.81 1872.66 1266.81 1833.19 2102.91 1821.76 2102.91 1859.78"/><polygon class="cls-2" points="1440.1 1936.89 1266.81 1940.08 1266.81 1900.61 1440.1 1897.72 1440.1 1936.89"/><polygon class="cls-2" points="2366.45 1919.87 1550.75 1934.86 1550.75 1895.88 2366.45 1882.31 2366.45 1919.87"/><polygon class="cls-2" points="1440.1 2003.79 1266.81 2007.49 1266.81 1968.02 1440.1 1964.63 1440.1 2003.79"/><polygon class="cls-2" points="2366.45 1984.02 1550.75 2001.43 1550.75 1962.46 2366.45 1946.46 2366.45 1984.02"/><polygon class="cls-2" points="1153.34 2077.66 975.59 2081.99 975.59 2042.01 1153.34 2038 1153.34 2077.66"/><polygon class="cls-2" points="2102.91 2054.57 1266.81 2074.91 1266.81 2035.44 2102.91 2016.56 2102.91 2054.57"/><polygon class="cls-2" points="1440.1 2137.59 1266.81 2142.32 1266.81 2102.85 1440.1 2098.43 1440.1 2137.59"/><polygon class="cls-2" points="2366.45 2112.32 1550.75 2134.57 1550.75 2095.6 2366.45 2074.76 2366.45 2112.32"/></g><path class="cls-2" d="M2607.81,1043V2167.58c0,26.51-25.25,48.8-56.63,49.84l-720,23.33V1029.85h774.76A41.57,41.57,0,0,1,2607.81,1043Z"/><path class="cls-28" d="M2551.32,971,959.55,930c-53.37-1.38-96.83,31.64-96.83,73.75v54.69l1771.82,35.62v-50.5C2634.54,1004.68,2597.36,972.2,2551.32,971Z"/><path class="cls-2" d="M1028.08,1000.28c0,13.68-12.52,24.47-28,24.09S972,1012.57,972,998.85s12.58-24.5,28.08-24.08S1028.08,986.61,1028.08,1000.28Z"/><path class="cls-2" d="M1125.82,1002.78c0,13.62-12.41,24.35-27.73,24s-27.81-11.75-27.81-25.4,12.46-24.38,27.81-24S1125.82,989.17,1125.82,1002.78Z"/><path class="cls-2" d="M1222.62,1005.26c0,13.54-12.29,24.23-27.47,23.86s-27.54-11.68-27.54-25.27S1180,979.58,1195.15,980,1222.62,991.71,1222.62,1005.26Z"/><g class="cls-29"><path class="cls-2" d="M1932.59,1438.68c-185.92-212.13-507.72-144.64-711.29-379a478.67,478.67,0,0,1-78.71-125l-183-4.71c-53.38-1.38-96.83,31.64-96.83,73.75V2220.27c0,42.11,43.45,74.79,96.83,73L2493,2241.93c-35.13-39.73-341.09-186.88-420.13-412.82C2000.61,1622.49,2044.76,1566.66,1932.59,1438.68Z"/></g><g class="cls-30"><path class="cls-31" d="M1870.47,1361.35l659.88,6.68a8.35,8.35,0,0,0,8.43-8.34v-206.5a8.35,8.35,0,0,0-8.16-8.34l-659.88-14.63a8.35,8.35,0,0,0-8.53,8.34V1353A8.35,8.35,0,0,0,1870.47,1361.35Z"/><path class="cls-32" d="M2533.93,1461.32l-666.78-3.4a8.35,8.35,0,0,0-8.39,8.34v669.93a8.35,8.35,0,0,0,8.6,8.34l666.78-20.45a8.34,8.34,0,0,0,8.09-8.34V1469.66A8.34,8.34,0,0,0,2533.93,1461.32Z"/></g><path class="cls-33" d="M1967,2152.31c21-22.37-37-106.38-68.07-143.19-27.11-32.17-55-65.22-89.2-61-30,3.68-59.28,35.36-61,65.73C1744,2095.5,1937.25,2184.1,1967,2152.31Z"/><path class="cls-34" d="M1715.54,3015.63c-4,3.21-4.67,11.21-5.15,16.44-.21,2.34-.31,3.51-.05,4.34,1.9,6,13.58,6.65,31.89,8.52,28.94,3,37.55,5.23,39.81.93,2.13-4-3-10.64-3.59-11.37-3.11-3.92-6.92-5.34-14.3-7.77-13.65-4.5-22.88-7-25.67-7.7C1721,3014.36,1718.13,3013.53,1715.54,3015.63Z"/><path class="cls-5" d="M1732.75,2989.2l2.89,33c-.82,1.6-10.62,6.37-18.41,2.28l-7.44-32.42Z"/><path class="cls-35" d="M1945,3011.4c-4.73,5.21-5.81,14.82-1.7,19.56s10.12,1.16,27.34,1.68c18.45.55,23.27,4.91,35.81,1.45,5.06-1.4,14-4.8,13.84-8.42-.12-2.54-4.67-3.86-19.89-9-21.59-7.23-21.49-7.63-26.08-8.39C1962.83,3006.42,1951.27,3004.51,1945,3011.4Z"/><path class="cls-5" d="M1956.85,2981.3l9.25,30.79c-.7,1.65-10.1,7.16-18.18,3.67l-13.74-29.88Z"/><path class="cls-36" d="M1874.62,2307.09a2884.68,2884.68,0,0,0,91.12,683.17l-35.42,9.53c-30-27.93-67.74-71.9-86-134-11.31-38.57-7.54-58.39-14.72-105.82-11.43-75.53-34.58-115.1-58.51-176-21.5-54.73-46.92-135.05-60.55-242.42Z"/><path class="cls-37" d="M1768,2297.22q-10.85,197.37-17.67,402-5.08,153.54-7.52,303.14l-36.18,4.47a421.83,421.83,0,0,1-37.74-97.39c-12.88-51.64-9.89-82.31-15.54-135.83-6.34-60-15.54-73.1-31.85-148.83-33.1-153.68-49.64-230.52-12.73-278.32C1620.8,2331,1658.37,2292,1768,2297.22Z"/><path class="cls-38" d="M1592.26,1966.53a561,561,0,0,1,120.34-20.1c72.31-4.09,108.46-6.13,134.08,11.09,59.17,39.77,13.36,131.56,37.58,359.09,3.46,32.5,4.24,65.22,6.74,97.81,4.15,53.94,5.1,56.87,1.34,62.34-23.54,34.28-111.35-17.43-240.07,3-72,11.44-104.68,37.78-124.41,18.78-23-22.16-3.27-81.77,13.72-133.08,19.5-58.89,31.55-59.65,42.62-104,11.57-46.36,4.57-70.23,2.77-143.34A1293.64,1293.64,0,0,1,1592.26,1966.53Z"/><g class="cls-39"><path class="cls-40" d="M1767.29,2393.7c-33.64-2.63-55.46,16.39-84.5,1.56-39.82-20.32-52.62-83.56-50.08-128.32,3.85-68,42.69-85.93,36-129.89-3.62-23.77-20.59-55.34-81.53-87.58-.81,27.14-.66,50.27-.2,68.65,1.8,73.11,8.8,97-2.77,143.34-11.07,44.36-23.12,45.12-42.62,104-17,51.31-36.73,110.92-13.72,133.08,19.73,19,52.39-7.34,124.41-18.78,110.91-17.61,191.41,18.29,226.63,6.65C1836.34,2416.09,1797.74,2396.08,1767.29,2393.7Z"/></g><path class="cls-41" d="M1638.15,1971.19c-24-19.74-72.34,2.61-85.25,8.58-72,33.32-136.68,123.08-120.66,217.95,2.4,14.23,13.54,80.77,69.89,113,50.85,29.09,119.51,21.61,174.51-19.6l22.56-20,22.18-24a177.92,177.92,0,0,0-59.12-32.57c-36.57-11.81-63.2,9.37-80.17-6.73-11.71-11.11-11.74-30.74-8.85-42.63,5.83-24,27-30.72,44.6-47.73C1659.28,2077.51,1666.92,1994.83,1638.15,1971.19Z"/><polygon class="cls-42" points="1983.44 2280.89 1661.39 2276.08 1747.03 2317.41 1984.26 2301.89 1983.44 2280.89"/><path class="cls-43" d="M1650,2284.64h0a14.33,14.33,0,0,0,9.44,13.47l102.9,40.34.47-28-101.44-34.41A8.91,8.91,0,0,0,1650,2284.64Z"/><path class="cls-2" d="M1699.61,2265.59c-2-.45,9.63-23.57,18.74-20.9s53.67,28.49,57.72,39.12l4,10.64s-19.44,1.52-31.49-2.53S1715.68,2269.17,1699.61,2265.59Z"/><path class="cls-44" d="M1771.38,2114.25l-22.71,206.69c-.78,7.13,9.21,17.76,16.37,17.42l333-20.45a11.66,11.66,0,0,0,11-9.68l41.8-199.63c1.25-7.27-11.81-14.77-19.18-14.56l-349,9.81A11.67,11.67,0,0,0,1771.38,2114.25Z"/><path class="cls-45" d="M1779,2120.27l-22.7,206.7a11.66,11.66,0,0,0,12.15,12.93l337.23-16a11.69,11.69,0,0,0,11-9.69l34.45-200.54a11.67,11.67,0,0,0-11.83-13.64l-349,9.81A11.66,11.66,0,0,0,1779,2120.27Z"/><path class="cls-46" d="M1977,2275.51c-29.45-12.48-19.06-36.28-53.83-65.94-45.87-39.12-92.62-22.15-109-52.48-5.1-9.44-7.53-24.14,1.34-47.92l-25.27.71a11.66,11.66,0,0,0-11.27,10.39l-22.7,206.7a11.66,11.66,0,0,0,12.15,12.93l337.23-16a11.69,11.69,0,0,0,11-9.69l4.75-27.67a127.39,127.39,0,0,0-36.72-13.76C2035.18,2262.78,2010.91,2289.87,1977,2275.51Z"/><path class="cls-5" d="M2126.92,2295a2.64,2.64,0,0,0-2.37-3.47c-7.13-.36-23.66-.51-32.78,5.08-11.86,7.26-27.18,20.51-14.28,27.2l12.06,6.24a2.5,2.5,0,0,0,1.76.24c4.28-.94,22.31-4.94,24.28-5.93C2117.39,2323.49,2124.26,2303.09,2126.92,2295Z"/><path class="cls-2" d="M1718,1867.43a249.82,249.82,0,0,1-4.48,50.08c-2.59,13.34-4.46,16.78-6.84,19.58-3.59,4.21-9,7.74-39.74,15.36-16.72,4.14-18.87,4-19.24,5.69-1.8,8.09,43.78,35.67,90.88,29,28.82-4.06,55-20.51,53.43-29.14s-30.41-4-39-19.75c-6-10.94.72-26.46,8.63-39.32C1754,1884.6,1725.66,1881.78,1718,1867.43Z"/><path class="cls-47" d="M1759.73,1866.45c3.45-10.77-1.35-25.8-12-32.64-9.19-5.87-19.62-3.53-25.86-2.13-18.08,4.06-37.48,19-39.53,37.63-1.21,11.06,15.44,27.35,18.21,30.36,3.13,3.4,6.76,3.67,10.72,5.69,5.5,2.79,14.14,7.27,28.34,14.84a75.83,75.83,0,0,1-.17-13.18,67,67,0,0,1,3.42-16.74C1748,1876.07,1756.47,1876.66,1759.73,1866.45Z"/><path class="cls-2" d="M1721.6,1915.93s18,14.76,40.21,5.34c19.91-8.43,6.94-55.16-9.45-60.31-5.47-1.72-14.63,0-21,4.42-3.77,2.62-4.58,4.85-10.82,9-5.75,3.86-7.78,3.78-9.13,6-1.69,2.85-1.72,8.39,6.93,20.35-5.26-2.58-10.45-2.46-13.21.25a7.4,7.4,0,0,0-1.79,3.59C1702.3,1910.86,1709.39,1915.86,1721.6,1915.93Z"/><path class="cls-48" d="M1709.52,1878c1.24.39-.48,5.1,1.1,10.37,3.08,10.22,17.5,18.75,28.25,16.15,6.36-1.54,6.76-5.84,16.55-10.46a49.29,49.29,0,0,1,15.12-4.32c7,9.93,7.89,22,2.29,29.68-6,8.27-17.35,8.48-22.08,8.57-3.17,0-13.3.26-21-6.43-8-7-5-13.9-12.69-17.8-3.91-2-8.12-1.93-13.79-6.4a29.49,29.49,0,0,1-3.42-3.15C1703.19,1886.85,1707.73,1877.48,1709.52,1878Z"/><path class="cls-2" d="M1764.57,1896.46s-3.59,3.83-11.35,6.06c-.37.11-.74.36-.72.57.07.78,6.08,2.31,10.13-.52,2.88-2,4.31-5.9,3.61-6.52C1766,1895.79,1765.24,1896.08,1764.57,1896.46Z"/><path class="cls-49" d="M664.44,1955.67c0-89,82.13-158.55,180-155.37,55.7,1.81,104.17,26.93,134.44,64v0c.19.23.36.47.55.7.52.65,1,1.31,1.54,2,.93,1.19,1.86,2.4,2.75,3.62.53.72,1.06,1.44,1.57,2.17q1.31,1.83,2.53,3.69c.48.71,1,1.41,1.42,2.13.92,1.43,1.8,2.88,2.67,4.34.32.53.65,1,1,1.58,1.15,2,2.25,4,3.3,6,.28.54.54,1.09.81,1.63q1.15,2.28,2.24,4.6c.35.75.68,1.52,1,2.28.6,1.37,1.19,2.75,1.75,4.14l1,2.42c.54,1.42,1.06,2.86,1.56,4.3.26.75.53,1.5.78,2.26q.9,2.72,1.68,5.48c.11.39.24.76.34,1.15.62,2.22,1.17,4.46,1.67,6.72.15.66.28,1.33.41,2,.34,1.62.66,3.24.94,4.88.15.83.27,1.67.4,2.5.23,1.52.44,3,.63,4.56.1.86.2,1.71.29,2.57.16,1.61.29,3.23.4,4.86.05.75.11,1.5.15,2.26.12,2.37.19,4.76.19,7.15,0,57.14-34.6,107.54-86.48,134.53q-7.15,3.72-14.75,6.84-3.79,1.56-7.69,3a191,191,0,0,1-59,11.06h0c-2.88.09-5.74.1-8.59.06-1,0-1.92-.07-2.88-.1-1.88-.05-3.77-.11-5.64-.22-1.15-.06-2.28-.17-3.42-.25-1.67-.13-3.34-.26-5-.43-1.22-.12-2.42-.27-3.63-.42-1.57-.19-3.14-.38-4.7-.61-1.24-.18-2.48-.39-3.71-.59-1.51-.25-3-.51-4.5-.8-1.25-.24-2.5-.49-3.74-.75-1.46-.31-2.91-.64-4.36-1-1.25-.29-2.48-.6-3.71-.91-1.44-.37-2.86-.76-4.27-1.17-1.22-.34-2.44-.69-3.65-1.06l-1.35-.39,0,0C713.59,2081.78,664.44,2024.31,664.44,1955.67Z"/><path class="cls-50" d="M1024.08,1955.69c0,88.81-81.71,158.42-179,155.57-93.7-2.73-167.15-72.09-167.15-155s73.45-152.5,167.15-155.55C942.37,1797.55,1024.08,1866.88,1024.08,1955.69Z"/><path class="cls-2" d="M807.66,1998.71l-69.48-35.37V1952l69.48-40.23v19.38l-48.07,25.68,48.07,22.62Z"/><path class="cls-2" d="M881.58,1896l-39.52,119.43-19.85-.2,39.21-119Z"/><path class="cls-2" d="M896.27,1979.67l50.78-23.18-50.78-26v-19.73l74.06,40.59v11.93l-74.06,36Z"/><g class="cls-39"><path class="cls-51" d="M887.36,2072.62c-21.12-46.5.23-89.47-28.28-119.29s-65.39-2-104.33-25.93c-14.9-9.17-31.35-26.71-43.51-62.89-21,25.75-33.36,57.51-33.36,91.75,0,82.91,73.45,152.27,167.15,155a190.71,190.71,0,0,0,62.84-8.6A106.94,106.94,0,0,1,887.36,2072.62Z"/></g><path class="cls-4" d="M2483.13,3103.76a4,4,0,0,1-4-4V2269.13a4,4,0,1,1,7.91,0v830.68A4,4,0,0,1,2483.13,3103.76Z"/><path class="cls-4" d="M2706.92,3051.58a4,4,0,0,1-4-4V2248.19a4,4,0,1,1,7.91,0v799.43A4,4,0,0,1,2706.92,3051.58Z"/><path class="cls-4" d="M3224.32,3088.81a4,4,0,0,1-3.72-2.61l-299.16-824.31a4,4,0,0,1,7.44-2.7L3228,3083.5a4,4,0,0,1-3.72,5.31Z"/><path class="cls-4" d="M3003.47,3153.31a4,4,0,0,1-3.78-2.79L2731.2,2281.44a4,4,0,1,1,7.55-2.34l268.5,869.09a4,4,0,0,1-2.61,4.94A4,4,0,0,1,3003.47,3153.31Z"/><polygon class="cls-4" points="2704.46 2247.35 2479.96 2263.97 2479.96 2269.02 2736.53 2280.52 2928.29 2257.02 2928.29 2251.97 2704.46 2247.35"/><polygon class="cls-52" points="2704.46 2242.3 2479.96 2263.97 2736.53 2275.47 2928.29 2251.97 2704.46 2242.3"/><path class="cls-4" d="M2945.38,2965.29a4,4,0,0,1-1-7.78l213.76-56.08a4,4,0,0,1,2,7.66l-213.75,56.07A3.94,3.94,0,0,1,2945.38,2965.29Z"/><path class="cls-4" d="M2884.83,2768.57a4,4,0,0,1-.69-7.85l209.78-37.15a4,4,0,1,1,1.38,7.79l-209.78,37.15A4.11,4.11,0,0,1,2884.83,2768.57Z"/><path class="cls-4" d="M2821.87,2565.51a4,4,0,0,1-.5-7.88l203-26.17a4,4,0,1,1,1,7.84l-203,26.17A2.92,2.92,0,0,1,2821.87,2565.51Z"/><path class="cls-4" d="M2781.53,2424.6a4,4,0,0,1-.61-7.87l190.89-29.87a4,4,0,1,1,1.22,7.82l-190.89,29.87A4.18,4.18,0,0,1,2781.53,2424.6Z"/><path class="cls-53" d="M2600.49,2222.21s-54,27.45-54.9,31.83,34.74-1.47,49.28-.84,26.5-4.17,25.19-11.06-6.41-24.21-6.41-24.21Z"/><path class="cls-54" d="M2598.51,2199.93l3.29,27.19s8.55,3.41,14.29-.62l2.45-29.82Z"/><path class="cls-55" d="M2852.9,2200.58l6.29,11.28a14.81,14.81,0,0,1,1.44,10.54c-2.2,9.38-6.59,27.66-8.5,32.43-2.61,6.49-37.57,10.34-37.57,10.34s-3.11-4.9,4.15-10.82,11.92-6.86,14.48-15.6,4.27-33.47,4.27-33.47Z"/><path class="cls-56" d="M2826.75,2171.92c2.3,2,13.52,40.15,13.52,40.15s3.64,5.2,10.54-2.47,3.13-3.44,3.13-3.44l-1.3-37.48Z"/><path class="cls-57" d="M2568.79,1653.6c-2.85,81.12-3,169.25,1.21,263.4,4.7,106,14.14,204,26.05,292.83,4.42.16,9.07.18,13.93,0,3.28-.1,6.46-.28,9.53-.52a732.31,732.31,0,0,0,20-71.57,761.58,761.58,0,0,0,14-83.8c10.4-91.87-1.79-99.89,6.65-168,7.48-60.3,18.11-62.66,30.59-148.27,13.55-92.9,3.46-106.84-1.44-111.87C2668.43,1604.42,2619.4,1619,2568.79,1653.6Z"/><path class="cls-58" d="M2689.3,1625.85c-19.91-20.44-65.43-8.07-113.51,23.13,55.31,66.82,61.34,110.17,54.71,138.3-7.49,31.78-30.28,40.94-30.19,75.7.1,42.71,34.58,54,33.85,99.23-.48,29.89-15.63,29.58-19.21,66.49-4.24,43.68,15.56,58.73,9.15,91-2.76,13.9-10.63,32.07-33,50.78,1.61,13.28,3.27,26.41,5,39.3,4.42.16,9.07.19,13.93,0,3.28-.1,6.46-.28,9.53-.52a732.81,732.81,0,0,0,20-71.56,762.13,762.13,0,0,0,14-83.81c10.4-91.87-1.79-99.89,6.65-168,7.48-60.3,18.11-62.66,30.59-148.27C2704.28,1644.82,2694.2,1630.88,2689.3,1625.85Z"/><path class="cls-59" d="M2603.05,1652.24a1894.28,1894.28,0,0,1,144.95,291,1966.6,1966.6,0,0,1,78.38,243.47,26.45,26.45,0,0,0,15.95,2.77c10.28-1.52,16.45-8.86,18.06-10.91a586.4,586.4,0,0,0,4.14-129.34c-1.64-20.6-4.53-54.89-16.27-97.22-13.15-47.42-22.19-50.09-39.34-100.25-17.81-52.08-13.49-65.07-30.55-130.24a927.07,927.07,0,0,0-38.07-114.26Z"/><path class="cls-60" d="M2545.8,1307.79c-38-41.36-58.36-42.91-64.75-73-6.32-29.76,4.4-71.68,31.67-88.38,2-1.23,22.65-13.42,44.21-4.93,32.61,12.84,24.24,56,57.06,85.17,27.81,24.69,65.69,22,91.33,20.13,61.74-4.43,79.33-38.1,107.38-24.87,35.15,16.59,23.26,76.87,59.16,89.92,24,8.73,36.45-15.6,70.63-14.46,40.16,1.33,75.59,36.69,91.34,72.7,28.77,65.84-3.4,144.94-42.92,188.16-32.48,35.51-91.81,70.74-129,50.41-29.41-16.06-29.55-58.33-57.62-61.29-20-2.1-26,18.63-51.48,23.59-41.86,8.15-79.4-37.29-89.63-49.68-29.18-35.33-19.2-50.62-52.05-114.9C2598.1,1381,2579.41,1344.41,2545.8,1307.79Z"/><path class="cls-61" d="M2152.1,1322s-13.37-7.4-22.44-13.32-44-18-44-18,0,4.58,7.91,8.09,23.58,8.58,23.16,14.08-5.57,12.62,3.34,18.37,15-4,22.59.42,15.56,9.35,15.56,9.35Z"/><path class="cls-62" d="M2151.74,1313.13l-3.15,35.2a327.06,327.06,0,0,0,66.16,55.48c13.17,8.31,53.06,32.11,105.83,41.38,71.82,12.63,186.49,1.69,195.72-52.58,8.24-48.42-51-110.49-65.47-121.3-28.45,14-51.91,39.39-83.13,57.37-10.23,5.89-37,21-73.26,25.11C2227.33,1361.48,2171.49,1326.75,2151.74,1313.13Z"/><path class="cls-63" d="M2417,1307.88c3,15,49.71,7,59.35,34.23,5.17,14.63-5.81,23.92-6.27,48.77-.52,27.82,12.74,43.62,22.91,65.5,14.9,32,15,63.47,15.06,126.31.16,89.44-19.62,107.43-2.73,136.25,22,37.53,74.74,39.92,89,40.57,48.78,2.22,54.56-23.69,107.49-26.79,60.44-3.53,69.05,29.32,112.28,15.31,39.49-12.8,52.78-46.85,83.53-39.8,19.22,4.4,24.31,20.07,42.45,18.37s37-19.76,38.34-38.28c1.59-23-23.57-52-63-52-15.67,6.15-41.64,13.28-70.52,5.36-47.32-13-71.94-58-99.27-107.93-18.92-34.57-53.68-98.11-54.09-181.42-.17-34.36,5.64-44.41-2.74-62.77-27.19-59.64-132.7-50.74-141.63-49.88C2475.27,1246.56,2413.39,1289.74,2417,1307.88Z"/><path class="cls-64" d="M2393.43,1382.93l132.52,5.78a3.64,3.64,0,0,1,3.22,2.64L2591.6,1585c.9,2.78-1.91,9.73-4.54,9.41l-131-19.93a3.66,3.66,0,0,1-2.95-2.54l-65-180.73C2387.22,1388.51,2390.86,1382.81,2393.43,1382.93Z"/><path class="cls-65" d="M2391.37,1387.67l132.52,5.78a3.63,3.63,0,0,1,3.23,2.64l62.42,193.63c.9,2.78-1.12,5.64-3.74,5.33L2454,1579.2a3.66,3.66,0,0,1-2.95-2.54l-63.14-183.57C2387,1390.41,2388.8,1387.55,2391.37,1387.67Z"/><path class="cls-66" d="M2427.61,1394.88l-5.11-15.44a2.11,2.11,0,0,1,1.79-2.87h48.24a1.94,1.94,0,0,1,1.82,1.48l4.85,17.08a2.1,2.1,0,0,1-1.88,2.78l-48-1.64A1.94,1.94,0,0,1,2427.61,1394.88Z"/><path class="cls-67" d="M2509.18,1548.18c-8.6-31.21,5.56-51.53-8.9-75.79-20.45-34.3-64.39-19.78-78.05-47.46-3.68-7.46-5.44-18.59-.47-35.94l-30.39-1.32c-2.57-.12-4.4,2.74-3.48,5.42L2451,1576.66a3.66,3.66,0,0,0,2.95,2.54l80.12,9.64C2519.83,1574.92,2512.68,1560.86,2509.18,1548.18Z"/><path class="cls-68" d="M2606,1525s-20-4.46-27.75-9.89-15.91-14.17-27.3-13.7-22.85,6.95-17.59,8.44,15.09,13.15,22.6,17.74,24.66,5,27.85,4.76,15.8,8.23,15.8,8.23Z"/><path class="cls-69" d="M2915.42,1636.27c-15.67,6.15-41.64,13.28-70.52,5.36-47.32-13-71.94-58-99.27-107.93-18.92-34.57-53.68-98.11-54.09-181.42-.17-34.36,5.64-44.41-2.74-62.77a63.15,63.15,0,0,0-4.59-8.24c-20.66,15.61-28.67,31.25-31,45-5.7,33.42,21.17,60.74,7.19,89.56-13.39,27.61-46.5,20-53.4,43.63-7.45,25.53,29.19,40.93,30.8,80.38,1.94,47.34-49,70.53-40.05,102.19,7.74,27.45,50.35,25.47,50.32,40.19,0,17.5,1.32-18.63-50.32-40.19-15.65-6.53-89.3,47.83-98.25,38.29-1.93,15.43-1.58,26,5.83,38.64,22,37.53,74.74,39.92,89,40.57,48.78,2.22,54.56-23.69,107.49-26.79,60.44-3.53,69.05,29.32,112.28,15.31,39.49-12.8,52.78-46.85,83.53-39.8,19.22,4.4,24.31,20.07,42.45,18.37s37-19.76,38.34-38.28C2980,1665.31,2954.84,1636.32,2915.42,1636.27Z"/><path class="cls-70" d="M2605.45,1515.71,2587,1552.45c9.5,5.2,111.06,58.93,184.68,5.74,9.11-6.57,33.3-24,46.34-58.28,14.37-37.72,6.3-72.8,1.08-95.58-12.95-56.39-49.56-115.55-101.5-139.32-19.84-9.08-43.4-13.67-65.56-18-18.79-3.66-48.32-8.15-48.95-5-.31,1.55,6.55,3.53,11.32,6.55,29.27,18.51-7.89,95,26.51,131.62,32.95,35.12,75.71,29.32,82.61,61.14,3.2,14.8-3.43,28.11-6.39,34C2700.62,1508.49,2656.24,1523.3,2605.45,1515.71Z"/><path class="cls-71" d="M2536.51,1184.65s11.93,38.77,26.78,44.81,38.34,13,41.29,15.65-78.92,32.41-124.83,18.73h0c13.08-6.4,16.58-8.45,16.58-8.45a78.2,78.2,0,0,0,16.12-11.9A68.47,68.47,0,0,0,2528,1219l-4.29-22Z"/><path class="cls-72" d="M2541.87,1201.58s-6.92,17.18-23.31,14.54c-14.68-2.36-13.94-43.65-4-50.68,3.32-2.34,10.07-3.23,15.08-1.18,3.52,1.44,14,11,11.67,25.1,3.24-1.92,6.46-1.62,7.58.11,1.42,2.19-.88,6.17-1.4,7.08A12.19,12.19,0,0,1,2541.87,1201.58Z"/><ellipse class="cls-73" cx="911.85" cy="2985.96" rx="139.75" ry="57.04"/><path class="cls-74" d="M772.1,2979.27c0,29.74,62.57,53.84,139.75,53.84s139.75-24.1,139.75-53.84-62.57-78.38-139.75-78.38S772.1,2949.54,772.1,2979.27Z"/><path class="cls-75" d="M772.1,2979.27c0-29.73,62.57-78.38,139.75-78.38a189.68,189.68,0,0,1,92.83,24.47,20.34,20.34,0,0,1,2.2,10.64c-1.6,16.73-28.89,27-44.55,30.4-39.44,8.55-58.7-15-91.22-14.14-20.1.56-48,10.66-81,53.43C778.66,2997.89,772.1,2988.88,772.1,2979.27Z"/><path class="cls-5" d="M904.2,2938.15a31.71,31.71,0,0,0,15.69.09,10.11,10.11,0,0,0,7.5-9.83V2794.32H896.31v133.9A10.3,10.3,0,0,0,904.2,2938.15Z"/><path class="cls-76" d="M1076.05,2755.15l-47.47-30c-2-11.22-24.36-128.49-115.2-165.32-37-15-76.71-13.2-98.52-12.22-43.56,1.94-74.63,3.33-89.57,24.11-19.19,26.67,13,50.87,6.33,127.18-2.72,31.12-9.63,44.94-1,65.56,10.31,24.69,34.22,38.38,52.81,46.09a270.69,270.69,0,0,0,112,35.77c86.09,7.55,150.36-29.38,172.47-43.51a28.46,28.46,0,0,0,19.3-21.36A25.08,25.08,0,0,0,1076.05,2755.15Z"/><path class="cls-77" d="M805.28,2553.86c-32.21,1-52.23.58-63.3,15-11.62,15.1.12,28,2.3,81.72,2,49-6.66,68.38,9.18,95.54,0,0,8,13.8,20.75,24.17,44.9,36.63,160.73,36.19,209.48-40.29,38.89-61,22.67-150.95-23-180.71C938.28,2534.68,933.14,2550.08,805.28,2553.86Z"/><path class="cls-78" d="M1079.5,2728.2l-47.47-30s-127.16-41.8-244.81,17.14a39.06,39.06,0,0,0-21.37,35,28,28,0,0,0,17.22,25.87c20.52,14,60.59,37.15,115.83,43.2,87.81,9.63,153.14-30.58,172.46-43.51a28.44,28.44,0,0,0,19.3-21.37A25.07,25.07,0,0,0,1079.5,2728.2Z"/><path class="cls-79" d="M971.36,2291.57c-11.88-53.71-.11-65.4-15.54-84.72-18.71-23.45-54.74-29.5-77.32-27.13-5,.52-6.67-2.07-46.26,14.1-71.94,29.39-94.49,10.55-124.9,36.12-29.66,24.93-11.57,46-40,74.86-46.74,47.49-108.44,10.68-141.88,49.67-32.07,37.4-22.73,122.6,21.88,164.89,51.37,48.7,128.85,21.39,180.39,3.4,10.8-3.77,64.92-23.94,115-77.19A315.88,315.88,0,0,0,897,2366.49c2.49-4.21,6.63-9.45,13.12-11,7.78-1.93,15.16,2.3,18.68,4.12,18.52,9.57,48.25,13.64,57.33,5.08S981.22,2336.19,971.36,2291.57Z"/><path class="cls-80" d="M947.65,2326.33c14.55-13.26,66.48,12.29,100.89,46.2,40.42,39.84,37.32,72.14,72.6,121.63,17.54,24.61,47.61,57.73,100.88,86.74l-11.31,28.29c-25.76,1.55-76.33.64-123.52-30.17-32.77-21.4-49.63-49.76-82-105.6C972.66,2417.37,929.46,2342.9,947.65,2326.33Z"/><path class="cls-81" d="M1275.6,3084l-40.53-24.35h-18.3s-6.23,23.2-5.52,24.35c8.15,13.36,46.1,23.52,69.78,24.36,3.93.14,9.41.16,10.83-2.69C1294.26,3100.89,1283.54,3090.76,1275.6,3084Z"/><path class="cls-82" d="M1234.35,3033.11c-2.61,15.08.69,22.94,4.24,27.34,2.5,3.1,4.72,4,19.56,16.81,4.91,4.25,7.41,6.52,6.84,7.71-.65,1.36-5,.62-14.33-1.63-20.38-4.9-30.63-7.45-33.13-12.35-2.26-4.45-.26-6.45-.39-18.55a63.25,63.25,0,0,0-3-18.39Z"/><path class="cls-83" d="M1263.65,2913.61s18.31,21.86,15.33,45.81-35-11.07-39.52-22.9-9.7-28.7-9.7-28.7S1252.25,2893.83,1263.65,2913.61Z"/><path class="cls-84" d="M1256.66,2879.42s-5,25.46,4.51,38.9c4.72,6.69,11.09,12.37,9.21,17.81-1.25,3.65-6,6.28-10.05,5.86-7.72-.79-12-12.63-15-21-4.46-12.34-6.94-38.74-6.94-38.74Z"/><path class="cls-85" d="M1242.07,2900.89l16.89-6.16c8.79-20.07,19.51-53,15.93-93.09-9.21-103-104.5-157.63-115.09-163.47-26,13-52.26,31.4-53.21,54.57-1.2,29.08,38.42,44.45,75.66,87C1204.61,2805.24,1228.5,2843.28,1242.07,2900.89Z"/><path class="cls-86" d="M1236,3044.9c18.6-72.69,13.85-132,8.48-166.18-8.11-51.65-24.61-156.71-94.75-195.88-15.32-8.56-37.22-16.22-63.91-40a226.47,226.47,0,0,1-45-55.47c-93.8-27.52-180.32-16.36-218.5,34-4.42,5.81-15.46,18.42-17.6,37-4.82,42,36.4,92.45,82.65,103,58.79,13.4,92.89-46.95,145-26.87,14.57,5.62,26.92,19.54,51.62,47.38a393.45,393.45,0,0,1,55.77,81.17c19.91,38.94,35,67.69,37.2,104.94.51,8.68.82,26.22,11,45.13a94.06,94.06,0,0,0,26.25,30.17Z"/><path class="cls-87" d="M804.72,2658.33c2.14-18.59,13.18-31.2,17.6-37,38.18-50.31,124.7-61.47,218.5-34a226.47,226.47,0,0,0,45,55.47c26.69,23.78,48.59,31.44,63.91,40,42.83,23.92,65.64,72.4,78.77,118.29-19.49-30.21-36.17-38.24-49.07-38.39-18.48-.2-26.74,15.6-48.8,13.44-23.58-2.3-29-21.8-48.08-24-5.72-.67-12.76.21-21.22,4.71-11.28-11.81-19.69-18.81-29-22.39-52.08-20.08-86.18,40.27-145,26.87C841.12,2750.78,799.9,2700.28,804.72,2658.33Z"/><path class="cls-88" d="M1187.39,2715.35a309.37,309.37,0,0,0-46.69,1.06c-93.59,9.25-119.4,55.54-196.75,66.84-18.3,2.68-99.78,14.58-135.07-32.53-25.33-33.81-21.5-92.08,6.21-115,11.73-9.7,23.34-9.43,98.45-8.75,28.28.26,56.57.35,84.86.71,119.73,1.53,142.63-6.77,164.41,13C1173,2650,1187.84,2669.8,1187.39,2715.35Z"/><path class="cls-89" d="M934.63,2331.19s-139.72-40.75-154.22,61.54c-13.89,98,57.28,143,24.9,242.33-3.75,11.51,266-41.22,266-41.22-36-44.92-44.37-82-45.23-107.74-.94-28.24,7.2-41.08,0-74.47,0,0-8-37.26-37-69.25C984.87,2337.78,979.91,2333,934.63,2331.19Z"/><path class="cls-22" d="M845.32,2614.16l-.89-3.34c1.32-.35,132.14-35.16,209.55-39.5l.2,3.45C977.12,2579.09,846.64,2613.81,845.32,2614.16Z"/><path class="cls-90" d="M904.28,2269.89c1.28,6,7.8,38.07-5.33,46.32-2.85,1.79-8.32,2.82-19.25,4.87-7.16,1.34-13.17,2.16-17.41,2.67a43.86,43.86,0,0,0,8.64,22.1c17.4,22.33,52.31,16.55,57.28,15.65,17.56-3.2,34.83-8.62,39-11.94,6.35-5,11.34-8.83,14.3-12.68-6.8-3.28-20.51-11.94-29.72-14.77a171,171,0,0,0-19.21-4.72q-1.44-9.29-2.9-18.59Z"/><path class="cls-91" d="M907.37,2293.85s17.17,16.24,37.18,4.43c17.91-10.57-2.77-58.07-19.06-60.9-5.44-.94-14.62,1.63-20.13,6.68-3.88,3.55-12.9,20.29-3.15,35.35-5.12-.5-9.15,1.57-9.78,4.17-.79,3.3,4.09,6.69,5.2,7.46A16.53,16.53,0,0,0,907.37,2293.85Z"/><path class="cls-73" d="M1804.18,2998h-.27a3.46,3.46,0,0,1-3.19-3.44v-478.4a3.45,3.45,0,1,1,6.9,0v433.57L1873.26,2526a3.46,3.46,0,0,1,6.83,1.06l-72.51,468A3.45,3.45,0,0,1,1804.18,2998Z"/><polygon class="cls-92" points="592.72 2624.24 1791.1 2515.14 2423.16 2563.95 1219.86 2679.16 592.72 2624.24"/><polygon class="cls-73" points="1219.86 2679.16 592.72 2624.24 592.72 2650.77 1219.86 2705.69 2423.16 2590.48 2423.16 2563.95 1219.86 2679.16"/><path class="cls-73" d="M1214.45,3209.1a3.46,3.46,0,0,1-3.42-3l-68.94-509a3.45,3.45,0,1,1,6.84-.92L1211,3154.44V2696.63a3.45,3.45,0,0,1,6.9,0v509a3.45,3.45,0,0,1-3.21,3.45Z"/><path class="cls-73" d="M2414.41,3067.67a3.44,3.44,0,0,1-3.41-3l-63.91-467.63a3.46,3.46,0,1,1,6.85-.93l57,417.34V2578.08a3.45,3.45,0,0,1,6.9,0v486.14a3.46,3.46,0,0,1-3.22,3.45Z"/><path class="cls-73" d="M600.26,3115.53H600a3.45,3.45,0,0,1-3.2-3.44V2650.77a3.45,3.45,0,0,1,6.9,0v414.12l61-414.62a3.41,3.41,0,0,1,3.92-2.91,3.45,3.45,0,0,1,2.91,3.91l-67.85,461.31A3.45,3.45,0,0,1,600.26,3115.53Z"/><path class="cls-93" d="M875.05,2638.42q8-9,16-17.92c-41.63-54.62-74.67-78.28-98.06-89.57-4.9-2.36-14-6.43-16-14.61-5.07-20.9,44.47-36.17,67.89-77.79,21.7-38.57,18.81-95.91,0-104.66-37.29-17.32-202.29,126-156.52,228.18C712.31,2615.5,789.53,2647.93,875.05,2638.42Z"/><polygon class="cls-73" points="991.82 2614.76 991.82 2607.96 1284.77 2592.17 1284.77 2598.91 1077.76 2619.28 991.82 2614.76"/><polygon class="cls-74" points="991.82 2607.96 1082.69 2609.11 1284.77 2592.17 1228.27 2588.71 991.82 2607.96"/><path class="cls-94" d="M1030.67,2584.49l82.39-257.79c1.3-4.06,5.93-7,11.18-7.1L1485,2313c3.08-.06,8.41,2.19,10.29,4.13s4.41,2.29,3.71,4.8l-67.26,226.84c-1.12,3.78-5.13,6.71-9.8,7.13l-384.64,35.26Z"/><path class="cls-95" d="M1037.28,2591.14l83.55-259.53c1.3-4.06,5.92-7,11.15-7.09l360-6.85a10.55,10.55,0,0,1,7.8,3,7.19,7.19,0,0,1,1.84,7l-62.9,225.3c-1.08,3.88-5.21,6.89-10,7.26Z"/><path class="cls-96" d="M1037.28,2591.14l391.44-30.92c4.78-.37,8.91-3.38,10-7.26l19-68c-119.3,41.71-261,37.13-401.59,47.71Z"/><path class="cls-97" d="M1267.34,2634.55l-14.84,5.13s-78.07-14.66-81.47-17c-.54-.38-2.41-4,1.08-4.61,18.43-3.17,85.68-5.5,85.68-5.5l6.16.34Z"/><path class="cls-98" d="M1268.41,2630l-14.85,5.12s-78-14.7-81.45-17.09,86.75-10.06,86.75-10.06l6.15.36Z"/><path class="cls-99" d="M1333,2450.7s37.89,163,39,172.52c1,8.8-92.1,17.43-114.4,18.19a10.48,10.48,0,0,1-5.06-1.73c-6.18-.71,22.71-186.63,22.71-186.63l2.12.08Z"/><path class="cls-100" d="M1333,2450.7s43.08,164.63,44.2,174.16-109.6,16.8-119.29,16.48c-6.16-.71,19.47-188.21,19.47-188.21Z"/><path class="cls-74" d="M898.45,2608s24.57-11.25,38.76-10.24,34.16,13.91,37.63,21.56-48,6.82-48,6.82S865.46,2623.71,898.45,2608Z"/><path class="cls-101" d="M885.71,2594.81c13.71-17.43,46.41-6.78,48.26-6.15,7.82,2.65,18.29,8,17.56,11.48s-11.24,1.6-28.63,4.54c-25.44,4.29-36.72,13.73-41.22,8.93C878.24,2609.93,881.2,2600.54,885.71,2594.81Z"/><path class="cls-102" d="M1510.36,677.31c5.26.65,15.58,3.83,38.94,47.22,30.23,56.15,38.15,97.63,49.7,131.72,10.81,31.89,31.1,75.93,72.9,124.26l-20.71,21.54c-59.22-1.47-88.55-20.35-104.38-37.28-23.11-24.71-16-43.65-43.9-81.19-32.68-43.9-57.44-38.14-68.76-67.1C1412.93,762.19,1473,672.72,1510.36,677.31Z"/><path class="cls-103" d="M1662,888.43c0-18.53-15.31-34.3-35-35.23l-396.41-18.76c-21.12-1-38,13.8-38,33v374c0,19.25,17.18,35.06,38.31,35.32l396.32,4.71c19.74.24,34.83-14.61,34.83-33.14Z"/><path class="cls-104" d="M1675.81,889.08v359.58c0,.95.77,1.9.68,2.82-1.51,17.19-16.39,30.5-35.08,30.28L1245.33,1277c-21.07-.25-39-16.07-39-35.3V868.17c0-18,15.68-32,34.84-33,1.36-.08,3.09-.08,4.47,0l395.15,18.71C1660.51,854.8,1675.81,870.57,1675.81,889.08Z"/><path class="cls-2" d="M1601.74,1155.48l-76.6-102.88a4.57,4.57,0,0,0-3.51-1.74,4.28,4.28,0,0,0-3.5,1.52l-44.55,57-73.66-98.17a4.66,4.66,0,0,0-3.57-1.77,4.33,4.33,0,0,0-3.58,1.53L1284.13,1148.4a4,4,0,0,0-.2,4.26,5.06,5.06,0,0,0,3.84,2.5l148.32,3.23,74.75,1.63,87.44,1.9a4.59,4.59,0,0,0,3.65-2.28A4,4,0,0,0,1601.74,1155.48Z"/><path class="cls-2" d="M1545.5,989.83c0,17.07-14.84,30.41-33.2,29.8s-33.38-15-33.38-32.18,15-30.51,33.38-29.8S1545.5,972.76,1545.5,989.83Z"/><path class="cls-105" d="M1677.3,1251.48c-1.51,17.19-16.79,30.5-35.48,30.28L1245.54,1277c-21.08-.25-39.18-16.07-39.18-35.3V868.17c0-18,15.68-32,34.84-33,7.23,79,37.81,209.78,156.91,225.43C1527.79,1077.63,1648,1168.63,1677.3,1251.48Z"/><path class="cls-106" d="M1250.3,835.06s4.27,11.62,21.67,13.64,31.69-5.55,26.65-13.1S1255,827.31,1250.3,835.06Z"/><path class="cls-107" d="M1525.48,847.71s4.27,11.63,21.67,13.64,31.7-5.55,26.65-13.1S1530.16,840,1525.48,847.71Z"/><path class="cls-108" d="M668.71,1358.1c0-78,71.93-138.85,157.6-136.07,48.79,1.59,91.24,23.58,117.75,56v0l.48.62c.46.57.9,1.14,1.35,1.72.82,1,1.63,2.1,2.41,3.17.47.63.92,1.27,1.38,1.91.75,1.06,1.49,2.14,2.21,3.22.42.63.84,1.24,1.24,1.87.81,1.26,1.58,2.53,2.35,3.81.27.46.56.91.83,1.38,1,1.73,2,3.49,2.9,5.26.24.47.47,1,.71,1.43.67,1.33,1.33,2.67,2,4,.31.67.6,1.34.89,2,.53,1.19,1.05,2.4,1.54,3.61l.84,2.13c.48,1.24.93,2.5,1.37,3.76.23.66.47,1.32.68,2,.53,1.59,1,3.19,1.47,4.8.1.34.21.67.3,1,.54,1.94,1,3.91,1.47,5.88.13.58.23,1.17.35,1.76.3,1.41.58,2.84.83,4.27.12.73.23,1.46.35,2.19.2,1.33.38,2.66.54,4,.09.75.18,1.5.26,2.25.14,1.41.25,2.83.35,4.25,0,.66.1,1.32.13,2q.16,3.12.17,6.27c0,50-30.31,94.18-75.74,117.81q-6.27,3.27-12.92,6-3.32,1.36-6.74,2.59a167.27,167.27,0,0,1-51.71,9.69h0c-2.52.07-5,.08-7.53,0-.84,0-1.67-.06-2.51-.09-1.66-.05-3.31-.1-4.95-.19-1-.06-2-.15-3-.22-1.46-.12-2.93-.23-4.38-.37-1.07-.11-2.12-.25-3.18-.38-1.38-.16-2.75-.33-4.11-.53-1.09-.16-2.17-.34-3.26-.52-1.32-.22-2.63-.45-3.94-.7l-3.27-.66c-1.28-.27-2.55-.55-3.82-.85l-3.25-.8c-1.26-.33-2.5-.67-3.74-1-1.07-.3-2.14-.61-3.2-.93l-1.18-.34,0,0C711.76,1468.56,668.71,1418.22,668.71,1358.1Z"/><path class="cls-109" d="M983.68,1358.12c0,77.78-71.56,138.75-156.81,136.26-82.07-2.4-146.39-63.14-146.39-135.76s64.32-133.56,146.39-136.23C912.12,1219.62,983.68,1280.34,983.68,1358.12Z"/><g class="cls-110"><path class="cls-111" d="M863.94,1460.53c-18.49-40.73.21-78.36-24.77-104.48s-57.26-1.71-91.37-22.71c-13-8-27.46-23.39-38.11-55.07-18.37,22.55-29.21,50.36-29.21,80.35,0,72.62,64.32,133.36,146.39,135.76a167.38,167.38,0,0,0,55-7.54A93.78,93.78,0,0,1,863.94,1460.53Z"/></g><path class="cls-2" d="M799.75,1311.24v104c0,6.68,5.66,10.85,10.54,7.78l87.11-54.68c5.43-3.41,5.43-13.07,0-16.15l-87.11-49.38C805.41,1300.05,799.75,1304.56,799.75,1311.24Z"/><path class="cls-112" d="M955.3,1594.45c0-89.67,82.71-159.68,181.23-156.47,56.11,1.82,104.92,27.11,135.4,64.45l0,0,.55.71c.53.65,1,1.31,1.55,2,.94,1.2,1.87,2.41,2.77,3.64.54.73,1.06,1.46,1.59,2.19q1.29,1.85,2.54,3.72c.48.71,1,1.42,1.43,2.14.92,1.44,1.82,2.91,2.69,4.38.32.53.66,1,1,1.59q1.73,3,3.32,6c.29.54.54,1.1.82,1.64.77,1.53,1.53,3.07,2.25,4.63.35.76.68,1.53,1,2.3.61,1.38,1.2,2.77,1.77,4.16.33.81.65,1.63,1,2.44.55,1.44,1.08,2.88,1.58,4.33.26.76.54,1.52.79,2.28q.9,2.75,1.69,5.52c.11.39.24.77.34,1.16.62,2.23,1.18,4.49,1.69,6.76.15.67.27,1.35.41,2,.34,1.63.66,3.27.94,4.91.15.84.28,1.68.4,2.53q.36,2.28.63,4.59c.11.86.21,1.72.3,2.59.16,1.62.29,3.25.4,4.88.05.77.11,1.52.15,2.29.12,2.38.2,4.78.2,7.2,0,57.54-34.85,108.3-87.1,135.48q-7.21,3.75-14.85,6.89c-2.55,1-5.14,2-7.75,3a192.41,192.41,0,0,1-59.47,11.13h0c-2.9.09-5.78.1-8.66.06-1,0-1.92-.07-2.89-.09-1.9-.06-3.8-.12-5.69-.23-1.15-.06-2.29-.17-3.44-.25-1.68-.13-3.37-.26-5-.43-1.22-.12-2.44-.28-3.65-.43-1.58-.19-3.16-.38-4.73-.61-1.25-.18-2.5-.39-3.74-.6-1.52-.25-3-.51-4.54-.8-1.25-.24-2.51-.49-3.76-.76-1.47-.31-2.93-.64-4.39-1-1.25-.3-2.5-.6-3.74-.92-1.44-.37-2.87-.77-4.3-1.17-1.23-.35-2.46-.7-3.67-1.07-.45-.14-.91-.25-1.36-.39l0,0C1004.8,1721.46,955.3,1663.59,955.3,1594.45Z"/><path class="cls-113" d="M1317.5,1594.47c0,89.45-82.3,159.55-180.33,156.69-94.37-2.76-168.33-72.61-168.33-156.11s74-153.59,168.33-156.66C1235.2,1435.2,1317.5,1505,1317.5,1594.47Z"/><g class="cls-39"><path class="cls-114" d="M1179.81,1712.23c-21.27-46.83.23-90.1-28.49-120.14s-65.85-2-105.08-26.11c-15-9.23-31.57-26.9-43.81-63.34-21.13,25.94-33.59,57.92-33.59,92.41,0,83.5,74,153.35,168.33,156.11a192.3,192.3,0,0,0,63.29-8.67A107.53,107.53,0,0,1,1179.81,1712.23Z"/></g><rect class="cls-2" x="1037.63" y="1590.23" width="47.46" height="86.73"/><rect class="cls-2" x="1114.55" y="1540.15" width="47.46" height="136.81"/><rect class="cls-2" x="1193.1" y="1496.17" width="47.46" height="180.78"/><path class="cls-115" d="M2973.36,953.1a149.19,149.19,0,0,1-17.51,70c-30.38,57.58-97.06,97.57-174.42,97.57-39.73,0-76.65-10.55-107.26-28.61-20.25,4-51.68,10.62-68.26,14.16-4.88,1-8.87-4.44-7.14-9.77l18.51-56.43a155.57,155.57,0,0,1-10.3-16.92,149.32,149.32,0,0,1-17.49-70c0-71.61,51.46-132.72,123.86-156.69a218.67,218.67,0,0,1,140.13,1.38C2923.78,822.64,2973.36,882.81,2973.36,953.1Z"/><g class="cls-39"><path class="cls-116" d="M2955.85,1023.09c-30.38,57.58-97.06,97.57-174.42,97.57-39.73,0-76.65-10.55-107.26-28.61-20.25,4-51.68,10.62-68.26,14.16-4.88,1-8.87-4.44-7.14-9.77l18.51-56.43a155.57,155.57,0,0,1-10.3-16.92,149.32,149.32,0,0,1-17.49-70c0-71.61,51.46-132.72,123.86-156.69,13.57,6.63,25.13,16,33.68,28.85,33.52,50.34-1.31,120.16,27.89,158.68a48.5,48.5,0,0,0,4.13,4.81,43.39,43.39,0,0,0,8.29,6.69c21.95,13.86,50.11,3.35,79.73-2,4.07-.72,8.16-1.39,12.26-1.85a105.54,105.54,0,0,1,23-.32,76.91,76.91,0,0,1,12.31,2.34,71.74,71.74,0,0,1,11.19,4.22C2935.92,1002.63,2946.16,1010.51,2955.85,1023.09Z"/></g><rect class="cls-2" x="2752.79" y="1026.39" width="55.23" height="17.26" rx="6.95"/><path class="cls-2" d="M2808,1055.74a5.17,5.17,0,0,1-5.18,5.17h-38a5.17,5.17,0,0,1-5.18-5.17h0a5.18,5.18,0,0,1,5.18-5.18h38a5.18,5.18,0,0,1,5.18,5.18Z"/><path class="cls-2" d="M2768,985.05c7.57,31.43,7.57,31,7.57,31h13.89s0-.41,7.68-32.34C2784,989,2773.82,987.53,2768,985.05Z"/><path class="cls-2" d="M2782.51,890.59a50.48,50.48,0,0,0-43.77,75.7,108.46,108.46,0,0,1,13.24,37.23c.25,1.55.49,2.66.74,4.21.8,5,5.13,8.31,10.24,8.31h7.52c-.5,0-5.43-21.72-8.74-35.4-.25-1,.19-1.29,1.1-1.87s2.08-.1,2.93.57c.54.42,13.71,10.56,33.88-.05a2.56,2.56,0,0,1,2.73.35c.78.61,1.13,0,.9,1-3.3,13.69-8.24,35.45-8.74,35.45h7.53c5.09,0,9.44-3.28,10.24-8.31.24-1.55.49-2.88.73-4.43a107.28,107.28,0,0,1,13.24-37.12,49.82,49.82,0,0,0,6.75-25.12A50.48,50.48,0,0,0,2782.51,890.59Z"/><rect class="cls-2" x="2776.95" y="833.09" width="10.36" height="37.97" rx="5.05"/><path class="cls-2" d="M2722.23,904.59l-25.56-16.3a5,5,0,0,0-5.43,8.51l25.55,16.31a5.05,5.05,0,0,0,5.44-8.52Z"/><path class="cls-2" d="M2714.48,936.61l-30.29-1.09a5,5,0,1,0-.37,10.09l30.3,1.1a5.05,5.05,0,0,0,.36-10.1Z"/><path class="cls-2" d="M2850.54,936.61l30.29-1.09a5,5,0,1,1,.37,10.09l-30.29,1.1a5.05,5.05,0,0,1-.37-10.1Z"/><path class="cls-2" d="M2875.33,889.83a5,5,0,0,0-7-1.54l-25.55,16.3a5.05,5.05,0,0,0,5.43,8.52l25.56-16.31A5,5,0,0,0,2875.33,889.83Z"/><path class="cls-2" d="M2736.1,852a5.05,5.05,0,1,0-9,4.49l13.47,27.15a5.05,5.05,0,0,0,9.05-4.49Z"/><path class="cls-2" d="M2835.7,849.76a5.05,5.05,0,0,0-6.77,2.28l-13.47,27.15a5.05,5.05,0,1,0,9.05,4.49L2838,856.53A5.05,5.05,0,0,0,2835.7,849.76Z"/><path class="cls-117" d="M2509.55,3242.31c93.79-12,212.71-43.72,260.47-133,11.37-21.24,22.77-62.5-5.91-78-26.21-14.2-60.11.8-79.6,19.29-14.32,13.58-25.5,43.91-41.6,53.5-23.56,14-36.24-24.26-35.74-40.07,1.1-35.34,44.58-49.81,73.47-57.48,48-12.74,103.8-23.66,100.79-77.7s-55.7-86.47-96.24-62.82c-33.39,19.48-28.69,61.06-51.51,86-20.28,22.17-27.33-13.81-26-31.45,2.94-38.31,36.63-66,61.41-91.69,28-29,59-87.43,29.12-125.81-17.19-22.08-60.86-27.25-86.67-23.53-126.33,18.24-42.56,181.73-65.53,200s-44.7-13.69-44.64-62.24-7.38-84.36-58-68.82-60.32,142.35-2.46,191.09-3.63,101.91-19.16,67c-11.22-25.22-21.07-91.26-53.48-98.51-54-12-53.2,98.22-37.66,123.88,21.79,36,71,43.78,98.55,74.82,8,9,26,31.34,19,44.52-9.78,18.38-37.05-1.28-47.07-9.8-22.52-19.15-53.7-84.23-85.44-41C2276.48,3153.77,2342,3232.89,2509.55,3242.31Z"/><g class="cls-118"><path class="cls-2" d="M2523.06,3232.12a3.76,3.76,0,0,1-4-3.61c0-1.92-2.65-194,81.32-422.66a4,4,0,0,1,5.2-2.32,4.11,4.11,0,0,1,2.41,5.25c-83.45,227.25-80.86,417.65-80.83,419.55a3.74,3.74,0,0,1-4,3.79Z"/></g><path class="cls-119" d="M2557.56,3160.05c-15.21-12.93-47.51,7.3-60.92,15-7.77,4.47-18.41,11.31-27.77,7.34-9.83-4.17-9.14-14.49-3.19-21.8,10.64-13.09,31.05-16.68,45.89-23.06,15.93-6.85,30.57-16.18,38.42-32.26,6.27-12.83,7.7-31.79.65-44.42-19.52-35-47.94-7.67-63.83,13.17-7.71,10.12-25,27.55-38.07,15.62-13.93-12.69-2-35.32,8.83-45.3,14.12-13,31.21-22.1,46.58-33.43,13.87-10.22,28.11-24.87,18.88-43-7.13-14-25.08-21.75-40.41-20.56-35.43,2.74-40.95,54.47-64.28,74.33-8.25,7-27,12.61-36.85,5.72-10-7-3.5-23.1.1-31.87,10.68-26,87.33-113.15,23.81-124.09-16-2.76-38,2.27-50.59,12.44-23.7,19.18-36.27,57.16-42.52,86-9.81,45.33-9.26,95.69,1.7,140.78,24.23,99.65,81.17,131.66,81.17,131.66,24.62,8.1,55.41,12.1,80.94,6.69,30-6.35,65.9-28.56,80.74-56.28C2561.64,3183.76,2567,3168.07,2557.56,3160.05Z"/></g></g></svg>