<svg id="Layer_1" data-name="Layer 1" xmlns="http://www.w3.org/2000/svg" viewBox="0 0 24 24"><defs><style>.cls-1{fill:none;}.cls-2{fill:#fce07d;}</style></defs><path class="cls-1" d="M0,0H24V24H0Z"/><path class="cls-2" d="M19.42,6.68A5.71,5.71,0,0,1,21,11c0,3.5-2.46,6.64-6,8.19l-.89-1.38a7.44,7.44,0,0,0,4.24-5.62,3.59,3.59,0,0,1-1.93.31,3.5,3.5,0,0,1,.28-7A3.88,3.88,0,0,1,19.42,6.68Zm-10,0A5.71,5.71,0,0,1,11,11c0,3.5-2.46,6.64-6,8.19L4.08,17.8a7.44,7.44,0,0,0,4.24-5.62,3.59,3.59,0,0,1-1.93.31,3.5,3.5,0,0,1,.28-7A3.88,3.88,0,0,1,9.42,6.68Z"/></svg>