<svg id="Layer_1" data-name="Layer 1" xmlns="http://www.w3.org/2000/svg" viewBox="0 0 24 24"><defs><style>.cls-1{fill:none;}.cls-2{fill:#fce07d;}</style></defs><path class="cls-1" d="M-.31.4h24v24h-24Z" transform="translate(0.31 -0.4)"/><path class="cls-2" d="M4.28,17.72a5.71,5.71,0,0,1-1.59-4.31c0-3.5,2.46-6.63,6-8.19l.9,1.38a7.44,7.44,0,0,0-4.25,5.62,3.7,3.7,0,0,1,1.93-.31,3.5,3.5,0,0,1-.27,7A3.86,3.86,0,0,1,4.28,17.72Zm10,0a5.71,5.71,0,0,1-1.59-4.31c0-3.5,2.46-6.63,6-8.19l.9,1.38a7.44,7.44,0,0,0-4.25,5.62,3.7,3.7,0,0,1,1.93-.31,3.5,3.5,0,0,1-.27,7A3.86,3.86,0,0,1,14.28,17.72Z" transform="translate(0.31 -0.4)"/></svg>