<svg id="Layer_1" data-name="Layer 1" xmlns="http://www.w3.org/2000/svg" viewBox="0 0 14.25 14.25"><defs><style>.cls-1{fill:#fff;stroke:#402e32;stroke-width:0.25px;}.cls-1,.cls-2{stroke-miterlimit:10;}.cls-2{fill:#402e32;stroke:#f6f6f6;stroke-width:0.15px;}</style></defs><circle class="cls-1" cx="7.13" cy="7.13" r="7"/><path class="cls-2" d="M12.4,17l.06-2.2a.43.43,0,0,1,.44-.4.38.38,0,0,1,.42.38l0,1.26,3.59-3.28a.45.45,0,0,1,.61,0,.35.35,0,0,1,0,.54l-3.59,3.29,1.39,0a.39.39,0,0,1,.41.38.42.42,0,0,1-.44.4l-2.41.06A.38.38,0,0,1,12.4,17Z" transform="translate(-7.99 -8.05)"/></svg>