<svg id="Layer_1" data-name="Layer 1" xmlns="http://www.w3.org/2000/svg" viewBox="0 0 248.41 257.21"><defs><style>.cls-1{font-size:28px;font-family:Gadugi;}.cls-2{fill:#edd4ff;}</style></defs><text class="cls-1" transform="translate(23.65 126.11) rotate(-81.2)">V</text><text class="cls-1" transform="matrix(0.27, -0.96, 0.96, 0.27, 26.49, 109.5)">i</text><text class="cls-1" transform="translate(27.96 103.36) rotate(-68.7)">e</text><text class="cls-1" transform="translate(32.73 90.3) rotate(-59.17)">w</text><text class="cls-1" transform="translate(43.09 73.67) rotate(-51.59)"> </text><text class="cls-1" transform="translate(47.4 67.92) rotate(-45.66)">a</text><text class="cls-1" transform="translate(57.15 58.17) rotate(-39.96)">l</text><text class="cls-1" transform="matrix(0.81, -0.59, 0.59, 0.81, 62.1, 54.01)">l</text><text class="cls-1" transform="matrix(0.84, -0.54, 0.54, 0.84, 67.29, 50.17)"> </text><text class="cls-1" transform="translate(73.19 46.1) rotate(-25.77)">p</text><text class="cls-1" transform="translate(87.53 39.36) rotate(-18.61)">r</text><text class="cls-1" transform="translate(96.16 36.2) rotate(-11.43)">o</text><text class="cls-1" transform="translate(111.75 33.29) rotate(-5.12)">j</text><text class="cls-1" transform="translate(118.02 32.47) rotate(0.93)">e</text><text class="cls-1" transform="translate(132.06 32.68) rotate(8.09)">c</text><text class="cls-1" transform="translate(144.37 34.49) rotate(14.23)">t</text><text class="cls-1" transform="translate(153.12 36.62) rotate(20.09)">s</text><text class="cls-1" transform="translate(163.83 40.62) rotate(25.44)"> </text><text class="cls-1" transform="translate(170.45 43.79) rotate(29.18)">.</text><text class="cls-1" transform="translate(175.51 46.57) rotate(32.93)"> </text><text class="cls-1" transform="translate(181.67 50.18) rotate(39.74)">V</text><text class="cls-1" transform="matrix(0.69, 0.72, -0.72, 0.69, 194.45, 61.16)">i</text><text class="cls-1" transform="matrix(0.61, 0.79, -0.79, 0.61, 198.96, 65.55)">e</text><text class="cls-1" transform="translate(207.76 76.37) rotate(61.57)">w</text><text class="cls-1" transform="translate(216.76 93.77) rotate(69.21)"> </text><text class="cls-1" transform="matrix(0.26, 0.97, -0.97, 0.26, 219.49, 100.42)">a</text><text class="cls-1" transform="translate(222.85 113.77) rotate(80.97)">l</text><text class="cls-1" transform="translate(223.87 120.15) rotate(84.65)">l</text><text class="cls-1" transform="translate(224.5 126.57) rotate(88.55)"> </text><text class="cls-1" transform="matrix(-0.09, 1, -1, -0.09, 224.96, 133.72)">p</text><text class="cls-1" transform="matrix(-0.21, 0.98, -0.98, -0.21, 223.4, 149.51)">r</text><text class="cls-1" transform="translate(221.7 158.52) rotate(109.34)">o</text><text class="cls-1" transform="matrix(-0.43, 0.9, -0.9, -0.43, 216.22, 173.43)">j</text><text class="cls-1" transform="translate(213.68 179.22) rotate(121.54)">e</text><text class="cls-1" transform="matrix(-0.63, 0.78, -0.78, -0.63, 206.33, 191.17)">c</text><text class="cls-1" transform="translate(198.44 200.79) rotate(135.11)">t</text><text class="cls-1" transform="translate(192.12 207.21) rotate(140.88)">s</text><text class="cls-1" transform="matrix(-0.83, 0.56, -0.56, -0.83, 183.19, 214.37)"> </text><text class="cls-1" transform="translate(177.08 218.44) rotate(149.93)">.</text><text class="cls-1" transform="matrix(-0.9, 0.44, -0.44, -0.9, 172.1, 221.37)"> </text><text class="cls-1" transform="translate(165.87 224.81) rotate(160.54)">V</text><text class="cls-1" transform="matrix(-0.98, 0.22, -0.22, -0.98, 149.89, 230.16)">i</text><text class="cls-1" transform="translate(143.79 231.78) rotate(173.03)">e</text><text class="cls-1" transform="translate(130.03 233.75) rotate(-177.6)">w</text><text class="cls-1" transform="translate(110.46 232.56) rotate(-170.02)"> </text><text class="cls-1" transform="matrix(-0.96, -0.28, 0.28, -0.96, 103.34, 231.51)">a</text><text class="cls-1" transform="translate(90.16 227.56) rotate(-158.25)">l</text><text class="cls-1" transform="matrix(-0.9, -0.43, 0.43, -0.9, 84.15, 225.17)">l</text><text class="cls-1" transform="translate(78.3 222.42) rotate(-150.59)"> </text><text class="cls-1" transform="matrix(-0.81, -0.59, 0.59, -0.81, 71.94, 219.15)">p</text><text class="cls-1" transform="translate(59.19 209.69) rotate(-136.92)">r</text><text class="cls-1" transform="matrix(-0.64, -0.77, 0.77, -0.64, 52.34, 203.61)">o</text><text class="cls-1" transform="matrix(-0.55, -0.83, 0.83, -0.55, 42.34, 191.26)">j</text><text class="cls-1" transform="translate(38.66 186.13) rotate(-117.72)">e</text><text class="cls-1" transform="translate(32.15 173.71) rotate(-110.18)">c</text><text class="cls-1" transform="matrix(-0.24, -0.97, 0.97, -0.24, 27.93, 162.02)">t</text><text class="cls-1" transform="translate(25.66 153.29) rotate(-98.18)">s</text><text class="cls-1" transform="translate(24.11 141.96) rotate(-92.88)"> </text><path class="cls-2" d="M285.14,220.81v33.37a5.9,5.9,0,1,1-11.79,0V235.05L225,283.38a5.94,5.94,0,0,1-8.46-.12,5.67,5.67,0,0,1,.12-8.23L265,226.7H245.89a5.9,5.9,0,1,1,0-11.79h33.37A5.9,5.9,0,0,1,285.14,220.81Z" transform="translate(-125.79 -117)"/><text x="-125.79" y="-117"/><text x="-125.79" y="-117"/></svg>