<svg id="Layer_1" data-name="Layer 1" xmlns="http://www.w3.org/2000/svg" viewBox="0 0 248.41 248.4"><defs><style>.cls-1{font-size:28px;font-family:Gadugi;}</style></defs><text class="cls-1" transform="translate(23.65 117.3) rotate(-81.2)">V</text><text class="cls-1" transform="matrix(0.27, -0.96, 0.96, 0.27, 26.49, 100.7)">i</text><text class="cls-1" transform="translate(27.96 94.55) rotate(-68.7)">e</text><text class="cls-1" transform="translate(32.73 81.49) rotate(-59.17)">w</text><text class="cls-1" transform="translate(43.09 64.86) rotate(-51.59)"> </text><text class="cls-1" transform="translate(47.4 59.11) rotate(-45.66)">a</text><text class="cls-1" transform="translate(57.15 49.36) rotate(-39.96)">l</text><text class="cls-1" transform="matrix(0.81, -0.59, 0.59, 0.81, 62.1, 45.2)">l</text><text class="cls-1" transform="matrix(0.84, -0.54, 0.54, 0.84, 67.29, 41.36)"> </text><text class="cls-1" transform="translate(73.19 37.29) rotate(-25.77)">p</text><text class="cls-1" transform="translate(87.53 30.55) rotate(-18.61)">r</text><text class="cls-1" transform="translate(96.16 27.39) rotate(-11.43)">o</text><text class="cls-1" transform="translate(111.75 24.48) rotate(-5.12)">j</text><text class="cls-1" transform="translate(118.02 23.66) rotate(0.93)">e</text><text class="cls-1" transform="translate(132.06 23.87) rotate(8.09)">c</text><text class="cls-1" transform="translate(144.37 25.68) rotate(14.23)">t</text><text class="cls-1" transform="translate(153.12 27.81) rotate(20.09)">s</text><text class="cls-1" transform="translate(163.83 31.81) rotate(25.44)"> </text><text class="cls-1" transform="translate(170.45 34.98) rotate(29.18)">.</text><text class="cls-1" transform="translate(175.51 37.77) rotate(32.93)"> </text><text class="cls-1" transform="translate(181.67 41.37) rotate(39.74)">V</text><text class="cls-1" transform="matrix(0.69, 0.72, -0.72, 0.69, 194.45, 52.35)">i</text><text class="cls-1" transform="matrix(0.61, 0.79, -0.79, 0.61, 198.96, 56.75)">e</text><text class="cls-1" transform="translate(207.76 67.56) rotate(61.57)">w</text><text class="cls-1" transform="translate(216.76 84.97) rotate(69.21)"> </text><text class="cls-1" transform="matrix(0.26, 0.97, -0.97, 0.26, 219.49, 91.61)">a</text><text class="cls-1" transform="translate(222.85 104.97) rotate(80.97)">l</text><text class="cls-1" transform="translate(223.87 111.34) rotate(84.65)">l</text><text class="cls-1" transform="translate(224.5 117.77) rotate(88.55)"> </text><text class="cls-1" transform="matrix(-0.09, 1, -1, -0.09, 224.96, 124.91)">p</text><text class="cls-1" transform="matrix(-0.21, 0.98, -0.98, -0.21, 223.4, 140.7)">r</text><text class="cls-1" transform="translate(221.7 149.71) rotate(109.34)">o</text><text class="cls-1" transform="matrix(-0.43, 0.9, -0.9, -0.43, 216.22, 164.62)">j</text><text class="cls-1" transform="translate(213.68 170.41) rotate(121.54)">e</text><text class="cls-1" transform="matrix(-0.63, 0.78, -0.78, -0.63, 206.33, 182.36)">c</text><text class="cls-1" transform="translate(198.44 191.98) rotate(135.11)">t</text><text class="cls-1" transform="translate(192.12 198.4) rotate(140.88)">s</text><text class="cls-1" transform="matrix(-0.83, 0.56, -0.56, -0.83, 183.19, 205.56)"> </text><text class="cls-1" transform="translate(177.08 209.63) rotate(149.93)">.</text><text class="cls-1" transform="matrix(-0.9, 0.44, -0.44, -0.9, 172.1, 212.56)"> </text><text class="cls-1" transform="translate(165.87 216.01) rotate(160.54)">V</text><text class="cls-1" transform="matrix(-0.98, 0.22, -0.22, -0.98, 149.89, 221.36)">i</text><text class="cls-1" transform="translate(143.79 222.98) rotate(173.03)">e</text><text class="cls-1" transform="translate(130.03 224.95) rotate(-177.6)">w</text><text class="cls-1" transform="translate(110.46 223.75) rotate(-170.02)"> </text><text class="cls-1" transform="matrix(-0.96, -0.28, 0.28, -0.96, 103.34, 222.7)">a</text><text class="cls-1" transform="translate(90.16 218.75) rotate(-158.25)">l</text><text class="cls-1" transform="matrix(-0.9, -0.43, 0.43, -0.9, 84.15, 216.36)">l</text><text class="cls-1" transform="translate(78.3 213.61) rotate(-150.59)"> </text><text class="cls-1" transform="matrix(-0.81, -0.59, 0.59, -0.81, 71.94, 210.35)">p</text><text class="cls-1" transform="translate(59.19 200.88) rotate(-136.92)">r</text><text class="cls-1" transform="matrix(-0.64, -0.77, 0.77, -0.64, 52.34, 194.8)">o</text><text class="cls-1" transform="matrix(-0.55, -0.83, 0.83, -0.55, 42.34, 182.46)">j</text><text class="cls-1" transform="translate(38.66 177.32) rotate(-117.72)">e</text><text class="cls-1" transform="translate(32.15 164.9) rotate(-110.18)">c</text><text class="cls-1" transform="matrix(-0.24, -0.97, 0.97, -0.24, 27.93, 153.22)">t</text><text class="cls-1" transform="translate(25.66 144.49) rotate(-98.18)">s</text><text class="cls-1" transform="translate(24.11 133.15) rotate(-92.88)"> </text><text x="-125.79" y="-125.81"/></svg>