<svg id="Layer_1" data-name="Layer 1" xmlns="http://www.w3.org/2000/svg" viewBox="0 0 256.81 256.91"><defs><style>.cls-1{font-size:33px;font-family:Gadugi;}</style></defs><text class="cls-1" transform="translate(27.63 121.68) rotate(-80.39)">V</text><text class="cls-1" transform="translate(31.29 102.29) rotate(-72.64)">i</text><text class="cls-1" transform="matrix(0.41, -0.91, 0.91, 0.41, 33.18, 95.18)">e</text><text class="cls-1" transform="matrix(0.58, -0.82, 0.82, 0.58, 39.48, 80.17)">w</text><text class="cls-1" transform="translate(53.18 61.72) rotate(-45.81)"> </text><text class="cls-1" transform="matrix(0.78, -0.63, 0.63, 0.78, 58.84, 55.5)">a</text><text class="cls-1" transform="translate(71.54 45.55) rotate(-32.19)">l</text><text class="cls-1" transform="translate(77.95 41.49) rotate(-27.86)">l</text><text class="cls-1" transform="translate(84.58 37.95) rotate(-23.26)"> </text><text class="cls-1" transform="translate(92.28 34.45) rotate(-16.98)">s</text><text class="cls-1" transform="translate(104.87 30.42) rotate(-8.48)">e</text><text class="cls-1" transform="translate(121.21 28.15) rotate(-0.93)">r</text><text class="cls-1" transform="matrix(0.99, 0.11, -0.11, 0.99, 132.02, 27.8)">v</text><text class="cls-1" transform="matrix(0.97, 0.22, -0.22, 0.97, 147.07, 29.71)">i</text><text class="cls-1" transform="matrix(0.94, 0.33, -0.33, 0.94, 154.34, 31.14)">c</text><text class="cls-1" transform="matrix(0.88, 0.47, -0.47, 0.88, 168, 35.77)">e</text><text class="cls-1" transform="matrix(0.82, 0.58, -0.58, 0.82, 182.51, 43.77)"> </text><text class="cls-1" transform="matrix(0.77, 0.64, -0.64, 0.77, 189.53, 48.73)">i</text><text class="cls-1" transform="matrix(0.71, 0.7, -0.7, 0.71, 195.34, 53.53)"> </text><text class="cls-1" transform="translate(201.58 59.08) rotate(52.01)">o</text><text class="cls-1" transform="matrix(0.5, 0.87, -0.87, 0.5, 212.8, 73.87)">f</text><text class="cls-1" transform="translate(217.71 82.33) rotate(65.61)">f</text><text class="cls-1" transform="translate(221.95 91.01) rotate(73.12)">e</text><text class="cls-1" transform="translate(226.6 106.84) rotate(80.93)">r</text><text class="cls-1" transform="translate(228.25 117.69) rotate(85.94)">.</text><text class="cls-1" transform="matrix(-0.02, 1, -1, -0.02, 228.84, 124.33)"> </text><text class="cls-1" transform="translate(229.19 132.71) rotate(98.17)">V</text><text class="cls-1" transform="matrix(-0.27, 0.96, -0.96, -0.27, 226.02, 152.22)">i</text><text class="cls-1" transform="matrix(-0.39, 0.92, -0.92, -0.39, 224.31, 159.37)">e</text><text class="cls-1" transform="translate(218.39 174.52) rotate(123.91)">w</text><text class="cls-1" transform="matrix(-0.68, 0.73, -0.73, -0.68, 205.16, 193.3)"> </text><text class="cls-1" transform="matrix(-0.76, 0.65, -0.65, -0.76, 199.66, 199.65)">a</text><text class="cls-1" transform="matrix(-0.83, 0.55, -0.55, -0.83, 187.2, 209.93)">l</text><text class="cls-1" transform="translate(180.89 214.15) rotate(150.71)">l</text><text class="cls-1" transform="matrix(-0.91, 0.42, -0.42, -0.91, 174.33, 217.87)"> </text><text class="cls-1" transform="matrix(-0.95, 0.32, -0.32, -0.95, 166.74, 221.55)">s</text><text class="cls-1" transform="translate(154.27 225.89) rotate(170.07)">e</text><text class="cls-1" transform="translate(137.96 228.59) rotate(177.82)">r</text><text class="cls-1" transform="matrix(-1, -0.09, 0.09, -1, 127.18, 229.18)">v</text><text class="cls-1" transform="matrix(-0.98, -0.2, 0.2, -0.98, 112.1, 227.66)">i</text><text class="cls-1" transform="translate(104.78 226.4) rotate(-162.15)">c</text><text class="cls-1" transform="translate(91.02 222.12) rotate(-153.31)">e</text><text class="cls-1" transform="matrix(-0.83, -0.56, 0.56, -0.83, 76.31, 214.49)"> </text><text class="cls-1" transform="matrix(-0.78, -0.62, 0.62, -0.78, 69.18, 209.71)">i</text><text class="cls-1" transform="translate(63.23 205.05) rotate(-137.04)"> </text><text class="cls-1" transform="translate(56.86 199.65) rotate(-129.41)">o</text><text class="cls-1" transform="translate(45.27 185.14) rotate(-121.41)">f</text><text class="cls-1" transform="translate(40.15 176.8) rotate(-115.83)">f</text><text class="cls-1" transform="translate(35.71 168.24) rotate(-108.32)">e</text><text class="cls-1" transform="matrix(-0.18, -0.98, 0.98, -0.18, 30.66, 152.54)">r</text><text class="cls-1" transform="translate(28.7 141.77) rotate(-94.96)"> </text><text x="-121.66" y="-121.54"/></svg>