<svg id="Layer_1" data-name="Layer 1" xmlns="http://www.w3.org/2000/svg" viewBox="0 0 281 281"><defs><style>.cls-1{font-size:32px;font-family:Gadugi;}.cls-2{fill:#edd4ff;}.cls-3{fill:none;stroke:#000;}</style></defs><text class="cls-1" transform="translate(39.69 133.56) rotate(-80.55)">V</text><text class="cls-1" transform="translate(43.18 114.74) rotate(-73.03)">i</text><text class="cls-1" transform="translate(44.99 107.79) rotate(-66.35)">e</text><text class="cls-1" transform="matrix(0.57, -0.82, 0.82, 0.57, 50.97, 93.17)">w</text><text class="cls-1" transform="matrix(0.68, -0.73, 0.73, 0.68, 64, 75.03)"> </text><text class="cls-1" transform="matrix(0.76, -0.65, 0.65, 0.76, 69.38, 68.89)">a</text><text class="cls-1" transform="translate(81.48 58.94) rotate(-33.72)">l</text><text class="cls-1" transform="translate(87.58 54.85) rotate(-29.53)">l</text><text class="cls-1" transform="matrix(0.91, -0.42, 0.42, 0.91, 93.95, 51.2)"> </text><text class="cls-1" transform="matrix(0.95, -0.32, 0.32, 0.95, 101.31, 47.59)">s</text><text class="cls-1" transform="translate(113.41 43.25) rotate(-10.69)">e</text><text class="cls-1" transform="translate(129.19 40.42) rotate(-3.16)">r</text><text class="cls-1" transform="translate(139.66 39.67) rotate(3.9)">v</text><text class="cls-1" transform="translate(154.34 40.84) rotate(10.13)">i</text><text class="cls-1" transform="translate(161.48 41.9) rotate(16.28)">c</text><text class="cls-1" transform="translate(174.94 45.69) rotate(24.85)">e</text><text class="cls-1" transform="matrix(0.85, 0.53, -0.53, 0.85, 189.46, 52.64)"> </text><text class="cls-1" transform="matrix(0.81, 0.59, -0.59, 0.81, 196.54, 57.03)">i</text><text class="cls-1" transform="matrix(0.76, 0.65, -0.65, 0.76, 202.48, 61.34)"> </text><text class="cls-1" transform="translate(208.88 66.35) rotate(48.1)">o</text><text class="cls-1" transform="matrix(0.56, 0.83, -0.83, 0.56, 220.73, 79.93)">f</text><text class="cls-1" transform="translate(226.08 87.78) rotate(61.27)">f</text><text class="cls-1" transform="translate(230.82 95.89) rotate(68.56)">e</text><text class="cls-1" transform="translate(236.55 110.86) rotate(76.15)">r</text><text class="cls-1" transform="matrix(0.15, 0.99, -0.99, 0.15, 239.06, 121.18)"> </text><text class="cls-1" transform="translate(240.27 129.47) rotate(85.81)">.</text><text class="cls-1" transform="translate(240.72 135.91) rotate(89.07)"> </text><text class="cls-1" transform="translate(241.22 144.06) rotate(97.67)">V</text><text class="cls-1" transform="translate(238.31 163.01) rotate(105.19)">i</text><text class="cls-1" transform="translate(236.72 170) rotate(111.87)">e</text><text class="cls-1" transform="translate(231.2 184.8) rotate(122.69)">w</text><text class="cls-1" transform="matrix(-0.66, 0.75, -0.75, -0.66, 218.74, 203.32)"> </text><text class="cls-1" transform="translate(213.56 209.62) rotate(138.03)">a</text><text class="cls-1" transform="translate(201.75 219.95) rotate(144.52)">l</text><text class="cls-1" transform="matrix(-0.85, 0.52, -0.52, -0.85, 195.77, 224.23)">l</text><text class="cls-1" transform="matrix(-0.89, 0.45, -0.45, -0.89, 189.53, 228.07)"> </text><text class="cls-1" transform="translate(182.26 231.92) rotate(159.27)">s</text><text class="cls-1" transform="matrix(-0.98, 0.22, -0.22, -0.98, 170.31, 236.62)">e</text><text class="cls-1" transform="matrix(-1, 0.09, -0.09, -1, 154.64, 239.94)">r</text><text class="cls-1" transform="translate(144.19 241.01) rotate(-177.85)">v</text><text class="cls-1" transform="translate(129.48 240.29) rotate(-171.64)">i</text><text class="cls-1" transform="matrix(-0.97, -0.25, 0.25, -0.97, 122.32, 239.45)">c</text><text class="cls-1" transform="matrix(-0.92, -0.39, 0.39, -0.92, 108.74, 236.08)">e</text><text class="cls-1" transform="translate(94.02 229.59) rotate(-149.99)"> </text><text class="cls-1" transform="matrix(-0.82, -0.57, 0.57, -0.82, 86.8, 225.41)">i</text><text class="cls-1" transform="translate(80.73 221.28) rotate(-141.07)"> </text><text class="cls-1" transform="matrix(-0.69, -0.72, 0.72, -0.69, 74.18, 216.47)">o</text><text class="cls-1" transform="translate(61.93 203.27) rotate(-125.91)">f</text><text class="cls-1" transform="translate(56.32 195.56) rotate(-120.48)">f</text><text class="cls-1" transform="translate(51.36 187.64) rotate(-113.23)">e</text><text class="cls-1" transform="matrix(-0.27, -0.96, 0.96, -0.27, 45.16, 172.85)">r</text><text class="cls-1" transform="translate(42.33 162.62) rotate(-100.22)"> </text><text class="cls-1" transform="translate(40.86 154.37) rotate(-95.96)">.</text><text class="cls-1" transform="translate(40.14 147.87) rotate(-91.75)"> </text><path class="cls-2" d="M285.14,220.81v33.37a5.9,5.9,0,1,1-11.79,0V235.05L225,283.38a5.94,5.94,0,0,1-8.46-.12,5.67,5.67,0,0,1,.12-8.23L265,226.7H245.89a5.9,5.9,0,1,1,0-11.79h33.37A5.9,5.9,0,0,1,285.14,220.81Z" transform="translate(-109.63 -109.63)"/><circle class="cls-3" cx="140.38" cy="140.38" r="80"/><circle class="cls-3" cx="140.5" cy="140.5" r="140"/></svg>