<svg id="Layer_1" data-name="Layer 1" xmlns="http://www.w3.org/2000/svg" viewBox="0 0 255.16 255.47">
<defs>
<style>
    .cls-1{font-size:32px;stroke:#000;stroke-miterlimit:10;stroke-width:0.25px;font-family:Gadugi;}.cls-2{fill:#edd4ff;}
</style>
</defs>
<text class="cls-1" transform="translate(26.74 120.92) rotate(-80.55)">V</text><text class="cls-1" transform="translate(30.23 102.1) rotate(-73.03)">i</text><text class="cls-1" transform="translate(32.04 95.15) rotate(-66.35)">e</text><text class="cls-1" transform="matrix(0.57, -0.82, 0.82, 0.57, 38.01, 80.53)">w</text><text class="cls-1" transform="matrix(0.68, -0.73, 0.73, 0.68, 51.04, 62.39)"> </text><text class="cls-1" transform="matrix(0.76, -0.65, 0.65, 0.76, 56.43, 56.25)">a</text><text class="cls-1" transform="translate(68.52 46.3) rotate(-33.72)">l</text><text class="cls-1" transform="translate(74.62 42.21) rotate(-29.53)">l</text><text class="cls-1" transform="matrix(0.91, -0.42, 0.42, 0.91, 81, 38.56)"> </text><text class="cls-1" transform="matrix(0.95, -0.32, 0.32, 0.95, 88.36, 34.95)">s</text><text class="cls-1" transform="translate(100.46 30.61) rotate(-10.69)">e</text><text class="cls-1" transform="translate(116.24 27.78) rotate(-3.16)">r</text><text class="cls-1" transform="translate(126.7 27.03) rotate(3.9)">v</text><text class="cls-1" transform="translate(141.38 28.2) rotate(10.13)">i</text><text class="cls-1" transform="translate(148.52 29.26) rotate(16.28)">c</text><text class="cls-1" transform="translate(161.99 33.05) rotate(24.85)">e</text><text class="cls-1" transform="matrix(0.85, 0.53, -0.53, 0.85, 176.51, 40)"> </text><text class="cls-1" transform="matrix(0.81, 0.59, -0.59, 0.81, 183.59, 44.39)">i</text><text class="cls-1" transform="matrix(0.76, 0.65, -0.65, 0.76, 189.53, 48.7)"> </text><text class="cls-1" transform="translate(195.92 53.71) rotate(48.1)">o</text><text class="cls-1" transform="matrix(0.56, 0.83, -0.83, 0.56, 207.77, 67.29)">f</text><text class="cls-1" transform="translate(213.13 75.15) rotate(61.27)">f</text><text class="cls-1" transform="translate(217.86 83.25) rotate(68.56)">e</text><text class="cls-1" transform="translate(223.59 98.22) rotate(76.15)">r</text><text class="cls-1" transform="matrix(0.15, 0.99, -0.99, 0.15, 226.1, 108.54)"> </text><text class="cls-1" transform="translate(227.31 116.83) rotate(85.81)">.</text><text class="cls-1" transform="translate(227.77 123.27) rotate(89.07)"> </text><text class="cls-1" transform="translate(228.26 131.42) rotate(97.67)">V</text><text class="cls-1" transform="translate(225.36 150.37) rotate(105.19)">i</text><text class="cls-1" transform="translate(223.77 157.36) rotate(111.87)">e</text><text class="cls-1" transform="translate(218.24 172.16) rotate(122.69)">w</text><text class="cls-1" transform="matrix(-0.66, 0.75, -0.75, -0.66, 205.79, 190.68)"> </text><text class="cls-1" transform="translate(200.6 196.98) rotate(138.03)">a</text><text class="cls-1" transform="translate(188.8 207.31) rotate(144.52)">l</text><text class="cls-1" transform="matrix(-0.85, 0.52, -0.52, -0.85, 182.82, 211.59)">l</text><text class="cls-1" transform="matrix(-0.89, 0.45, -0.45, -0.89, 176.57, 215.43)"> </text><text class="cls-1" transform="translate(169.3 219.28) rotate(159.27)">s</text><text class="cls-1" transform="matrix(-0.98, 0.22, -0.22, -0.98, 157.36, 223.98)">e</text><text class="cls-1" transform="matrix(-1, 0.09, -0.09, -1, 141.68, 227.3)">r</text><text class="cls-1" transform="translate(131.24 228.37) rotate(-177.85)">v</text><text class="cls-1" transform="translate(116.53 227.65) rotate(-171.64)">i</text><text class="cls-1" transform="matrix(-0.97, -0.25, 0.25, -0.97, 109.37, 226.81)">c</text><text class="cls-1" transform="matrix(-0.92, -0.39, 0.39, -0.92, 95.78, 223.44)">e</text><text class="cls-1" transform="translate(81.07 216.95) rotate(-149.99)"> </text><text class="cls-1" transform="matrix(-0.82, -0.57, 0.57, -0.82, 73.85, 212.77)">i</text><text class="cls-1" transform="translate(67.77 208.64) rotate(-141.07)"> </text><text class="cls-1" transform="matrix(-0.69, -0.72, 0.72, -0.69, 61.23, 203.83)">o</text><text class="cls-1" transform="translate(48.97 190.63) rotate(-125.91)">f</text><text class="cls-1" transform="translate(43.36 182.92) rotate(-120.48)">f</text><text class="cls-1" transform="translate(38.4 175) rotate(-113.23)">e</text><text class="cls-1" transform="matrix(-0.27, -0.96, 0.96, -0.27, 32.2, 160.21)">r</text><text class="cls-1" transform="translate(29.4 149.92) rotate(-100.71)">.</text><text class="cls-1" transform="matrix(-0.11, -0.99, 0.99, -0.11, 28.14, 143.5)"> </text><path class="cls-2" d="M285.14,220.81v33.37a5.9,5.9,0,1,1-11.79,0V235.05L225,283.38a5.94,5.94,0,0,1-8.46-.12,5.67,5.67,0,0,1,.12-8.23L265,226.7H245.89a5.9,5.9,0,1,1,0-11.79h33.37A5.9,5.9,0,0,1,285.14,220.81Z" transform="translate(-122.58 -122.26)"/><text x="-122.58" y="-122.26"/></svg>